<mxfile host="app.diagrams.net" agent="Mozilla/5.0 (X11; Linux x86_64) AppleWebKit/537.36 (KHTML, like Gecko) Chrome/141.0.0.0 Safari/537.36" version="28.2.5">
  <diagram name="Página-1" id="rDxfbMddbYRijUyDdZaz">
    <mxGraphModel dx="4157" dy="2697" grid="1" gridSize="10" guides="1" tooltips="1" connect="1" arrows="1" fold="1" page="1" pageScale="1" pageWidth="827" pageHeight="1169" math="0" shadow="0">
      <root>
        <mxCell id="0" />
        <mxCell id="1" parent="0" />
        <mxCell id="9OJgZ5kYdxDhE4Dtwnga-2" value="tener" style="shape=rhombus;perimeter=rhombusPerimeter;whiteSpace=wrap;html=1;align=center;" vertex="1" parent="1">
          <mxGeometry x="120" y="200" width="120" height="60" as="geometry" />
        </mxCell>
        <mxCell id="9OJgZ5kYdxDhE4Dtwnga-3" value="Usuario" style="whiteSpace=wrap;html=1;align=center;" vertex="1" parent="1">
          <mxGeometry x="525" y="200" width="170" height="60" as="geometry" />
        </mxCell>
        <mxCell id="9OJgZ5kYdxDhE4Dtwnga-4" value="Rol" style="whiteSpace=wrap;html=1;align=center;" vertex="1" parent="1">
          <mxGeometry x="-40" y="210" width="100" height="40" as="geometry" />
        </mxCell>
        <mxCell id="9OJgZ5kYdxDhE4Dtwnga-5" value="" style="endArrow=none;html=1;rounded=0;exitX=1;exitY=0.5;exitDx=0;exitDy=0;entryX=0;entryY=0.5;entryDx=0;entryDy=0;" edge="1" parent="1" source="9OJgZ5kYdxDhE4Dtwnga-4" target="9OJgZ5kYdxDhE4Dtwnga-2">
          <mxGeometry relative="1" as="geometry">
            <mxPoint x="240" y="350" as="sourcePoint" />
            <mxPoint x="400" y="350" as="targetPoint" />
          </mxGeometry>
        </mxCell>
        <mxCell id="9OJgZ5kYdxDhE4Dtwnga-6" value="" style="endArrow=none;html=1;rounded=0;entryX=0;entryY=0.5;entryDx=0;entryDy=0;exitX=1;exitY=0.5;exitDx=0;exitDy=0;" edge="1" parent="1" source="9OJgZ5kYdxDhE4Dtwnga-2" target="9OJgZ5kYdxDhE4Dtwnga-3">
          <mxGeometry relative="1" as="geometry">
            <mxPoint x="470" y="270" as="sourcePoint" />
            <mxPoint x="350" y="240" as="targetPoint" />
          </mxGeometry>
        </mxCell>
        <mxCell id="9OJgZ5kYdxDhE4Dtwnga-7" value="nombre" style="ellipse;whiteSpace=wrap;html=1;align=center;" vertex="1" parent="1">
          <mxGeometry x="560" y="-200" width="100" height="40" as="geometry" />
        </mxCell>
        <mxCell id="9OJgZ5kYdxDhE4Dtwnga-8" value="correo" style="ellipse;whiteSpace=wrap;html=1;align=center;fontStyle=4;" vertex="1" parent="1">
          <mxGeometry x="480" y="-160" width="100" height="40" as="geometry" />
        </mxCell>
        <mxCell id="9OJgZ5kYdxDhE4Dtwnga-10" value="id usuario" style="ellipse;whiteSpace=wrap;html=1;align=center;fontStyle=4;" vertex="1" parent="1">
          <mxGeometry x="300" y="-80" width="100" height="40" as="geometry" />
        </mxCell>
        <mxCell id="9OJgZ5kYdxDhE4Dtwnga-11" value="id rol" style="ellipse;whiteSpace=wrap;html=1;align=center;fontStyle=4;" vertex="1" parent="1">
          <mxGeometry x="-50" y="100" width="100" height="40" as="geometry" />
        </mxCell>
        <mxCell id="9OJgZ5kYdxDhE4Dtwnga-13" value="nombreRol" style="ellipse;whiteSpace=wrap;html=1;align=center;" vertex="1" parent="1">
          <mxGeometry x="-160" y="130" width="100" height="40" as="geometry" />
        </mxCell>
        <mxCell id="9OJgZ5kYdxDhE4Dtwnga-14" value="descripcion" style="ellipse;whiteSpace=wrap;html=1;align=center;" vertex="1" parent="1">
          <mxGeometry x="-160" y="290" width="100" height="40" as="geometry" />
        </mxCell>
        <mxCell id="9OJgZ5kYdxDhE4Dtwnga-15" value="" style="endArrow=none;html=1;rounded=0;exitX=0.5;exitY=0;exitDx=0;exitDy=0;entryX=0;entryY=0.5;entryDx=0;entryDy=0;" edge="1" parent="1" source="9OJgZ5kYdxDhE4Dtwnga-14" target="9OJgZ5kYdxDhE4Dtwnga-4">
          <mxGeometry relative="1" as="geometry">
            <mxPoint x="-60" y="330" as="sourcePoint" />
            <mxPoint x="100" y="330" as="targetPoint" />
          </mxGeometry>
        </mxCell>
        <mxCell id="9OJgZ5kYdxDhE4Dtwnga-16" value="" style="endArrow=none;html=1;rounded=0;exitX=0.5;exitY=1;exitDx=0;exitDy=0;entryX=0;entryY=0.25;entryDx=0;entryDy=0;" edge="1" parent="1" source="9OJgZ5kYdxDhE4Dtwnga-13" target="9OJgZ5kYdxDhE4Dtwnga-4">
          <mxGeometry relative="1" as="geometry">
            <mxPoint x="-40" y="290" as="sourcePoint" />
            <mxPoint x="30" y="230" as="targetPoint" />
          </mxGeometry>
        </mxCell>
        <mxCell id="9OJgZ5kYdxDhE4Dtwnga-17" value="" style="endArrow=none;html=1;rounded=0;exitX=0.5;exitY=1;exitDx=0;exitDy=0;entryX=0.5;entryY=0;entryDx=0;entryDy=0;" edge="1" parent="1" source="9OJgZ5kYdxDhE4Dtwnga-11" target="9OJgZ5kYdxDhE4Dtwnga-4">
          <mxGeometry relative="1" as="geometry">
            <mxPoint x="-10" y="250" as="sourcePoint" />
            <mxPoint x="60" y="190" as="targetPoint" />
          </mxGeometry>
        </mxCell>
        <mxCell id="9OJgZ5kYdxDhE4Dtwnga-18" value="" style="endArrow=none;html=1;rounded=0;exitX=0.5;exitY=1;exitDx=0;exitDy=0;entryX=0.147;entryY=0;entryDx=0;entryDy=0;entryPerimeter=0;" edge="1" parent="1" source="9OJgZ5kYdxDhE4Dtwnga-10" target="9OJgZ5kYdxDhE4Dtwnga-3">
          <mxGeometry relative="1" as="geometry">
            <mxPoint x="480" y="160" as="sourcePoint" />
            <mxPoint x="640" y="160" as="targetPoint" />
          </mxGeometry>
        </mxCell>
        <mxCell id="9OJgZ5kYdxDhE4Dtwnga-19" value="" style="endArrow=none;html=1;rounded=0;exitX=0.5;exitY=1;exitDx=0;exitDy=0;entryX=0.25;entryY=0;entryDx=0;entryDy=0;" edge="1" parent="1" source="9OJgZ5kYdxDhE4Dtwnga-8" target="9OJgZ5kYdxDhE4Dtwnga-3">
          <mxGeometry relative="1" as="geometry">
            <mxPoint x="610" y="170" as="sourcePoint" />
            <mxPoint x="640" y="330" as="targetPoint" />
          </mxGeometry>
        </mxCell>
        <mxCell id="9OJgZ5kYdxDhE4Dtwnga-20" value="" style="endArrow=none;html=1;rounded=0;exitX=0.5;exitY=1;exitDx=0;exitDy=0;entryX=0.418;entryY=0.012;entryDx=0;entryDy=0;entryPerimeter=0;" edge="1" parent="1" source="9OJgZ5kYdxDhE4Dtwnga-7" target="9OJgZ5kYdxDhE4Dtwnga-3">
          <mxGeometry relative="1" as="geometry">
            <mxPoint x="610" y="220" as="sourcePoint" />
            <mxPoint x="580" y="380" as="targetPoint" />
          </mxGeometry>
        </mxCell>
        <mxCell id="9OJgZ5kYdxDhE4Dtwnga-21" value="1" style="text;strokeColor=none;fillColor=none;spacingLeft=4;spacingRight=4;overflow=hidden;rotatable=0;points=[[0,0.5],[1,0.5]];portConstraint=eastwest;fontSize=12;whiteSpace=wrap;html=1;" vertex="1" parent="1">
          <mxGeometry x="70" y="200" width="20" height="30" as="geometry" />
        </mxCell>
        <mxCell id="9OJgZ5kYdxDhE4Dtwnga-24" value="1" style="text;strokeColor=none;fillColor=none;spacingLeft=4;spacingRight=4;overflow=hidden;rotatable=0;points=[[0,0.5],[1,0.5]];portConstraint=eastwest;fontSize=12;whiteSpace=wrap;html=1;" vertex="1" parent="1">
          <mxGeometry x="500" y="215" width="20" height="30" as="geometry" />
        </mxCell>
        <mxCell id="9OJgZ5kYdxDhE4Dtwnga-25" value="contraseña" style="ellipse;whiteSpace=wrap;html=1;align=center;" vertex="1" parent="1">
          <mxGeometry x="651" y="-160" width="100" height="40" as="geometry" />
        </mxCell>
        <mxCell id="9OJgZ5kYdxDhE4Dtwnga-26" value="" style="endArrow=none;html=1;rounded=0;exitX=0.5;exitY=1;exitDx=0;exitDy=0;entryX=0.582;entryY=0.033;entryDx=0;entryDy=0;entryPerimeter=0;" edge="1" parent="1" source="9OJgZ5kYdxDhE4Dtwnga-25" target="9OJgZ5kYdxDhE4Dtwnga-3">
          <mxGeometry relative="1" as="geometry">
            <mxPoint x="723" y="170" as="sourcePoint" />
            <mxPoint x="660" y="281" as="targetPoint" />
          </mxGeometry>
        </mxCell>
        <mxCell id="9OJgZ5kYdxDhE4Dtwnga-27" value="estado" style="ellipse;whiteSpace=wrap;html=1;align=center;" vertex="1" parent="1">
          <mxGeometry x="741" y="-130" width="100" height="40" as="geometry" />
        </mxCell>
        <mxCell id="9OJgZ5kYdxDhE4Dtwnga-29" value="" style="endArrow=none;html=1;rounded=0;exitX=0.424;exitY=1.026;exitDx=0;exitDy=0;entryX=0.75;entryY=0;entryDx=0;entryDy=0;exitPerimeter=0;" edge="1" parent="1" source="9OJgZ5kYdxDhE4Dtwnga-27" target="9OJgZ5kYdxDhE4Dtwnga-3">
          <mxGeometry relative="1" as="geometry">
            <mxPoint x="727" y="270" as="sourcePoint" />
            <mxPoint x="660" y="350" as="targetPoint" />
          </mxGeometry>
        </mxCell>
        <mxCell id="9OJgZ5kYdxDhE4Dtwnga-31" value="Cartera_Dital" style="whiteSpace=wrap;html=1;align=center;" vertex="1" parent="1">
          <mxGeometry x="-70" y="-130" width="100" height="40" as="geometry" />
        </mxCell>
        <mxCell id="9OJgZ5kYdxDhE4Dtwnga-32" value="utilizar" style="shape=rhombus;perimeter=rhombusPerimeter;whiteSpace=wrap;html=1;align=center;rotation=30;" vertex="1" parent="1">
          <mxGeometry x="200" y="20" width="120" height="60" as="geometry" />
        </mxCell>
        <mxCell id="9OJgZ5kYdxDhE4Dtwnga-34" value="" style="endArrow=none;html=1;rounded=0;entryX=1;entryY=0.5;entryDx=0;entryDy=0;exitX=0;exitY=0.25;exitDx=0;exitDy=0;" edge="1" parent="1" source="9OJgZ5kYdxDhE4Dtwnga-3" target="9OJgZ5kYdxDhE4Dtwnga-32">
          <mxGeometry relative="1" as="geometry">
            <mxPoint x="760" y="290" as="sourcePoint" />
            <mxPoint x="880" y="290" as="targetPoint" />
          </mxGeometry>
        </mxCell>
        <mxCell id="9OJgZ5kYdxDhE4Dtwnga-35" value="" style="endArrow=none;html=1;rounded=0;entryX=1;entryY=0.5;entryDx=0;entryDy=0;exitX=0;exitY=0.5;exitDx=0;exitDy=0;" edge="1" parent="1" source="9OJgZ5kYdxDhE4Dtwnga-32" target="9OJgZ5kYdxDhE4Dtwnga-31">
          <mxGeometry relative="1" as="geometry">
            <mxPoint x="-40" y="670" as="sourcePoint" />
            <mxPoint x="80" y="670" as="targetPoint" />
          </mxGeometry>
        </mxCell>
        <mxCell id="9OJgZ5kYdxDhE4Dtwnga-36" value="id carteraDigital" style="ellipse;whiteSpace=wrap;html=1;align=center;fontStyle=4;" vertex="1" parent="1">
          <mxGeometry x="-50" y="-255" width="100" height="40" as="geometry" />
        </mxCell>
        <mxCell id="9OJgZ5kYdxDhE4Dtwnga-37" value="saldo" style="ellipse;whiteSpace=wrap;html=1;align=center;" vertex="1" parent="1">
          <mxGeometry x="60" y="-235" width="100" height="40" as="geometry" />
        </mxCell>
        <mxCell id="9OJgZ5kYdxDhE4Dtwnga-38" value="" style="endArrow=none;html=1;rounded=0;exitX=0.5;exitY=1;exitDx=0;exitDy=0;entryX=0.5;entryY=0;entryDx=0;entryDy=0;" edge="1" parent="1" source="9OJgZ5kYdxDhE4Dtwnga-36" target="9OJgZ5kYdxDhE4Dtwnga-31">
          <mxGeometry relative="1" as="geometry">
            <mxPoint x="-180" y="180" as="sourcePoint" />
            <mxPoint x="-320" y="306" as="targetPoint" />
          </mxGeometry>
        </mxCell>
        <mxCell id="9OJgZ5kYdxDhE4Dtwnga-39" value="" style="endArrow=none;html=1;rounded=0;exitX=0;exitY=1;exitDx=0;exitDy=0;entryX=0.75;entryY=0;entryDx=0;entryDy=0;" edge="1" parent="1" source="9OJgZ5kYdxDhE4Dtwnga-37" target="9OJgZ5kYdxDhE4Dtwnga-31">
          <mxGeometry relative="1" as="geometry">
            <mxPoint x="250" y="210" as="sourcePoint" />
            <mxPoint x="110" y="336" as="targetPoint" />
          </mxGeometry>
        </mxCell>
        <mxCell id="9OJgZ5kYdxDhE4Dtwnga-40" value="Cine" style="whiteSpace=wrap;html=1;align=center;" vertex="1" parent="1">
          <mxGeometry x="560" y="670" width="100" height="40" as="geometry" />
        </mxCell>
        <mxCell id="9OJgZ5kYdxDhE4Dtwnga-41" value="administrar" style="shape=rhombus;perimeter=rhombusPerimeter;whiteSpace=wrap;html=1;align=center;" vertex="1" parent="1">
          <mxGeometry x="550" y="450" width="120" height="60" as="geometry" />
        </mxCell>
        <mxCell id="9OJgZ5kYdxDhE4Dtwnga-43" value="" style="endArrow=none;html=1;rounded=0;exitX=0.5;exitY=1;exitDx=0;exitDy=0;entryX=0.5;entryY=0;entryDx=0;entryDy=0;" edge="1" parent="1" source="9OJgZ5kYdxDhE4Dtwnga-3" target="9OJgZ5kYdxDhE4Dtwnga-41">
          <mxGeometry relative="1" as="geometry">
            <mxPoint x="590" y="390" as="sourcePoint" />
            <mxPoint x="750" y="390" as="targetPoint" />
          </mxGeometry>
        </mxCell>
        <mxCell id="9OJgZ5kYdxDhE4Dtwnga-44" value="" style="endArrow=none;html=1;rounded=0;exitX=0.5;exitY=1;exitDx=0;exitDy=0;entryX=0.5;entryY=0;entryDx=0;entryDy=0;" edge="1" parent="1" source="9OJgZ5kYdxDhE4Dtwnga-41" target="9OJgZ5kYdxDhE4Dtwnga-40">
          <mxGeometry relative="1" as="geometry">
            <mxPoint x="420" y="630" as="sourcePoint" />
            <mxPoint x="580" y="630" as="targetPoint" />
          </mxGeometry>
        </mxCell>
        <mxCell id="9OJgZ5kYdxDhE4Dtwnga-45" value="1" style="text;strokeColor=none;fillColor=none;spacingLeft=4;spacingRight=4;overflow=hidden;rotatable=0;points=[[0,0.5],[1,0.5]];portConstraint=eastwest;fontSize=12;whiteSpace=wrap;html=1;" vertex="1" parent="1">
          <mxGeometry x="505" y="179.09" width="20" height="30" as="geometry" />
        </mxCell>
        <mxCell id="9OJgZ5kYdxDhE4Dtwnga-46" value="1" style="text;strokeColor=none;fillColor=none;spacingLeft=4;spacingRight=4;overflow=hidden;rotatable=0;points=[[0,0.5],[1,0.5]];portConstraint=eastwest;fontSize=12;whiteSpace=wrap;html=1;" vertex="1" parent="1">
          <mxGeometry x="30" y="-130" width="20" height="30" as="geometry" />
        </mxCell>
        <mxCell id="9OJgZ5kYdxDhE4Dtwnga-47" value="id usuario" style="ellipse;whiteSpace=wrap;html=1;align=center;fontStyle=4;" vertex="1" parent="1">
          <mxGeometry x="500" y="555" width="100" height="40" as="geometry" />
        </mxCell>
        <mxCell id="9OJgZ5kYdxDhE4Dtwnga-48" value="nombreCine" style="ellipse;whiteSpace=wrap;html=1;align=center;" vertex="1" parent="1">
          <mxGeometry x="430" y="605" width="100" height="40" as="geometry" />
        </mxCell>
        <mxCell id="9OJgZ5kYdxDhE4Dtwnga-49" value="direccion" style="ellipse;whiteSpace=wrap;html=1;align=center;" vertex="1" parent="1">
          <mxGeometry x="690" y="750" width="100" height="40" as="geometry" />
        </mxCell>
        <mxCell id="9OJgZ5kYdxDhE4Dtwnga-51" value="fechaCreacion" style="ellipse;whiteSpace=wrap;html=1;align=center;" vertex="1" parent="1">
          <mxGeometry x="715" y="605" width="100" height="40" as="geometry" />
        </mxCell>
        <mxCell id="9OJgZ5kYdxDhE4Dtwnga-52" value="estado" style="ellipse;whiteSpace=wrap;html=1;align=center;" vertex="1" parent="1">
          <mxGeometry x="620" y="560" width="100" height="40" as="geometry" />
        </mxCell>
        <mxCell id="9OJgZ5kYdxDhE4Dtwnga-53" value="Generar" style="shape=rhombus;perimeter=rhombusPerimeter;whiteSpace=wrap;html=1;align=center;" vertex="1" parent="1">
          <mxGeometry x="550" y="860" width="120" height="60" as="geometry" />
        </mxCell>
        <mxCell id="9OJgZ5kYdxDhE4Dtwnga-54" value="Costro_Diario" style="whiteSpace=wrap;html=1;align=center;" vertex="1" parent="1">
          <mxGeometry x="560" y="1020" width="100" height="40" as="geometry" />
        </mxCell>
        <mxCell id="9OJgZ5kYdxDhE4Dtwnga-55" value="" style="endArrow=none;html=1;rounded=0;exitX=0.5;exitY=1;exitDx=0;exitDy=0;entryX=0.5;entryY=0;entryDx=0;entryDy=0;" edge="1" parent="1" source="9OJgZ5kYdxDhE4Dtwnga-40" target="9OJgZ5kYdxDhE4Dtwnga-53">
          <mxGeometry relative="1" as="geometry">
            <mxPoint x="600" y="780" as="sourcePoint" />
            <mxPoint x="600" y="940" as="targetPoint" />
          </mxGeometry>
        </mxCell>
        <mxCell id="9OJgZ5kYdxDhE4Dtwnga-56" value="" style="endArrow=none;html=1;rounded=0;exitX=0.5;exitY=1;exitDx=0;exitDy=0;entryX=0.5;entryY=0;entryDx=0;entryDy=0;" edge="1" parent="1" source="9OJgZ5kYdxDhE4Dtwnga-53" target="9OJgZ5kYdxDhE4Dtwnga-54">
          <mxGeometry relative="1" as="geometry">
            <mxPoint x="680" y="960" as="sourcePoint" />
            <mxPoint x="680" y="1120" as="targetPoint" />
          </mxGeometry>
        </mxCell>
        <mxCell id="9OJgZ5kYdxDhE4Dtwnga-57" value="id costoDiario" style="ellipse;whiteSpace=wrap;html=1;align=center;fontStyle=4;" vertex="1" parent="1">
          <mxGeometry x="400" y="1070" width="100" height="40" as="geometry" />
        </mxCell>
        <mxCell id="9OJgZ5kYdxDhE4Dtwnga-58" value="fechaInicio" style="ellipse;whiteSpace=wrap;html=1;align=center;" vertex="1" parent="1">
          <mxGeometry x="505" y="1110" width="100" height="40" as="geometry" />
        </mxCell>
        <mxCell id="9OJgZ5kYdxDhE4Dtwnga-59" value="fechaFin" style="ellipse;whiteSpace=wrap;html=1;align=center;" vertex="1" parent="1">
          <mxGeometry x="626" y="1110" width="100" height="40" as="geometry" />
        </mxCell>
        <mxCell id="9OJgZ5kYdxDhE4Dtwnga-60" value="costoDiario" style="ellipse;whiteSpace=wrap;html=1;align=center;" vertex="1" parent="1">
          <mxGeometry x="730" y="1070" width="100" height="40" as="geometry" />
        </mxCell>
        <mxCell id="9OJgZ5kYdxDhE4Dtwnga-61" value="1" style="text;strokeColor=none;fillColor=none;spacingLeft=4;spacingRight=4;overflow=hidden;rotatable=0;points=[[0,0.5],[1,0.5]];portConstraint=eastwest;fontSize=12;whiteSpace=wrap;html=1;" vertex="1" parent="1">
          <mxGeometry x="610" y="640" width="20" height="30" as="geometry" />
        </mxCell>
        <mxCell id="9OJgZ5kYdxDhE4Dtwnga-62" value="M" style="text;strokeColor=none;fillColor=none;spacingLeft=4;spacingRight=4;overflow=hidden;rotatable=0;points=[[0,0.5],[1,0.5]];portConstraint=eastwest;fontSize=12;whiteSpace=wrap;html=1;" vertex="1" parent="1">
          <mxGeometry x="610" y="260" width="20" height="30" as="geometry" />
        </mxCell>
        <mxCell id="9OJgZ5kYdxDhE4Dtwnga-63" value="1" style="text;strokeColor=none;fillColor=none;spacingLeft=4;spacingRight=4;overflow=hidden;rotatable=0;points=[[0,0.5],[1,0.5]];portConstraint=eastwest;fontSize=12;whiteSpace=wrap;html=1;" vertex="1" parent="1">
          <mxGeometry x="610" y="710" width="20" height="30" as="geometry" />
        </mxCell>
        <mxCell id="9OJgZ5kYdxDhE4Dtwnga-64" value="M" style="text;strokeColor=none;fillColor=none;spacingLeft=4;spacingRight=4;overflow=hidden;rotatable=0;points=[[0,0.5],[1,0.5]];portConstraint=eastwest;fontSize=12;whiteSpace=wrap;html=1;" vertex="1" parent="1">
          <mxGeometry x="610" y="990" width="20" height="30" as="geometry" />
        </mxCell>
        <mxCell id="9OJgZ5kYdxDhE4Dtwnga-65" value="Sala" style="whiteSpace=wrap;html=1;align=center;" vertex="1" parent="1">
          <mxGeometry x="1390" y="670" width="100" height="40" as="geometry" />
        </mxCell>
        <mxCell id="9OJgZ5kYdxDhE4Dtwnga-66" value="pertenecer" style="shape=rhombus;perimeter=rhombusPerimeter;whiteSpace=wrap;html=1;align=center;" vertex="1" parent="1">
          <mxGeometry x="960" y="720" width="120" height="60" as="geometry" />
        </mxCell>
        <mxCell id="9OJgZ5kYdxDhE4Dtwnga-67" value="" style="endArrow=none;html=1;rounded=0;exitX=1;exitY=0.5;exitDx=0;exitDy=0;entryX=0;entryY=0.5;entryDx=0;entryDy=0;" edge="1" parent="1" source="9OJgZ5kYdxDhE4Dtwnga-40" target="9OJgZ5kYdxDhE4Dtwnga-66">
          <mxGeometry relative="1" as="geometry">
            <mxPoint x="780" y="570" as="sourcePoint" />
            <mxPoint x="940" y="570" as="targetPoint" />
          </mxGeometry>
        </mxCell>
        <mxCell id="9OJgZ5kYdxDhE4Dtwnga-69" value="" style="endArrow=none;html=1;rounded=0;exitX=1;exitY=0.5;exitDx=0;exitDy=0;entryX=0;entryY=0.5;entryDx=0;entryDy=0;" edge="1" parent="1" source="9OJgZ5kYdxDhE4Dtwnga-66" target="9OJgZ5kYdxDhE4Dtwnga-65">
          <mxGeometry relative="1" as="geometry">
            <mxPoint x="910" y="680" as="sourcePoint" />
            <mxPoint x="1050" y="680" as="targetPoint" />
          </mxGeometry>
        </mxCell>
        <mxCell id="9OJgZ5kYdxDhE4Dtwnga-70" value="id sala" style="ellipse;whiteSpace=wrap;html=1;align=center;fontStyle=4;" vertex="1" parent="1">
          <mxGeometry x="1200" y="830" width="100" height="40" as="geometry" />
        </mxCell>
        <mxCell id="9OJgZ5kYdxDhE4Dtwnga-72" value="nombreSala" style="ellipse;whiteSpace=wrap;html=1;align=center;" vertex="1" parent="1">
          <mxGeometry x="1250" y="880" width="100" height="40" as="geometry" />
        </mxCell>
        <mxCell id="9OJgZ5kYdxDhE4Dtwnga-73" value="filas" style="ellipse;whiteSpace=wrap;html=1;align=center;" vertex="1" parent="1">
          <mxGeometry x="1320" y="920" width="100" height="40" as="geometry" />
        </mxCell>
        <mxCell id="9OJgZ5kYdxDhE4Dtwnga-74" value="columnas" style="ellipse;whiteSpace=wrap;html=1;align=center;" vertex="1" parent="1">
          <mxGeometry x="1430" y="910" width="100" height="40" as="geometry" />
        </mxCell>
        <mxCell id="9OJgZ5kYdxDhE4Dtwnga-75" value="permisoOpiniones" style="ellipse;whiteSpace=wrap;html=1;align=center;" vertex="1" parent="1">
          <mxGeometry x="1520" y="880" width="100" height="40" as="geometry" />
        </mxCell>
        <mxCell id="9OJgZ5kYdxDhE4Dtwnga-76" value="definir" style="shape=rhombus;perimeter=rhombusPerimeter;whiteSpace=wrap;html=1;align=center;rotation=15;" vertex="1" parent="1">
          <mxGeometry x="910" y="555" width="120" height="60" as="geometry" />
        </mxCell>
        <mxCell id="9OJgZ5kYdxDhE4Dtwnga-77" value="1" style="text;strokeColor=none;fillColor=none;spacingLeft=4;spacingRight=4;overflow=hidden;rotatable=0;points=[[0,0.5],[1,0.5]];portConstraint=eastwest;fontSize=12;whiteSpace=wrap;html=1;" vertex="1" parent="1">
          <mxGeometry x="660" y="670" width="20" height="30" as="geometry" />
        </mxCell>
        <mxCell id="9OJgZ5kYdxDhE4Dtwnga-78" value="M" style="text;strokeColor=none;fillColor=none;spacingLeft=4;spacingRight=4;overflow=hidden;rotatable=0;points=[[0,0.5],[1,0.5]];portConstraint=eastwest;fontSize=12;whiteSpace=wrap;html=1;" vertex="1" parent="1">
          <mxGeometry x="1370" y="660" width="20" height="30" as="geometry" />
        </mxCell>
        <mxCell id="9OJgZ5kYdxDhE4Dtwnga-79" value="" style="endArrow=none;html=1;rounded=0;exitX=0.623;exitY=1.002;exitDx=0;exitDy=0;entryX=0;entryY=0.5;entryDx=0;entryDy=0;exitPerimeter=0;" edge="1" parent="1" source="9OJgZ5kYdxDhE4Dtwnga-3" target="9OJgZ5kYdxDhE4Dtwnga-76">
          <mxGeometry relative="1" as="geometry">
            <mxPoint x="720" y="420" as="sourcePoint" />
            <mxPoint x="880" y="420" as="targetPoint" />
          </mxGeometry>
        </mxCell>
        <mxCell id="9OJgZ5kYdxDhE4Dtwnga-81" value="" style="endArrow=none;html=1;rounded=0;exitX=1;exitY=0.5;exitDx=0;exitDy=0;entryX=0.25;entryY=0;entryDx=0;entryDy=0;" edge="1" parent="1" source="9OJgZ5kYdxDhE4Dtwnga-76" target="9OJgZ5kYdxDhE4Dtwnga-65">
          <mxGeometry relative="1" as="geometry">
            <mxPoint x="1330" y="500" as="sourcePoint" />
            <mxPoint x="1642" y="694" as="targetPoint" />
          </mxGeometry>
        </mxCell>
        <mxCell id="9OJgZ5kYdxDhE4Dtwnga-83" value="M" style="text;strokeColor=none;fillColor=none;spacingLeft=4;spacingRight=4;overflow=hidden;rotatable=0;points=[[0,0.5],[1,0.5]];portConstraint=eastwest;fontSize=12;whiteSpace=wrap;html=1;" vertex="1" parent="1">
          <mxGeometry x="650" y="270" width="20" height="30" as="geometry" />
        </mxCell>
        <mxCell id="9OJgZ5kYdxDhE4Dtwnga-84" value="M" style="text;strokeColor=none;fillColor=none;spacingLeft=4;spacingRight=4;overflow=hidden;rotatable=0;points=[[0,0.5],[1,0.5]];portConstraint=eastwest;fontSize=12;whiteSpace=wrap;html=1;" vertex="1" parent="1">
          <mxGeometry x="1340" y="635" width="20" height="30" as="geometry" />
        </mxCell>
        <mxCell id="9OJgZ5kYdxDhE4Dtwnga-85" value="crear" style="shape=rhombus;perimeter=rhombusPerimeter;whiteSpace=wrap;html=1;align=center;rotation=0;" vertex="1" parent="1">
          <mxGeometry x="980" y="150" width="120" height="60" as="geometry" />
        </mxCell>
        <mxCell id="9OJgZ5kYdxDhE4Dtwnga-88" value="Pelicula" style="whiteSpace=wrap;html=1;align=center;" vertex="1" parent="1">
          <mxGeometry x="1390" y="210" width="100" height="40" as="geometry" />
        </mxCell>
        <mxCell id="9OJgZ5kYdxDhE4Dtwnga-89" value="" style="endArrow=none;html=1;rounded=0;exitX=1;exitY=0.5;exitDx=0;exitDy=0;entryX=0;entryY=0.5;entryDx=0;entryDy=0;" edge="1" parent="1" source="9OJgZ5kYdxDhE4Dtwnga-85" target="9OJgZ5kYdxDhE4Dtwnga-88">
          <mxGeometry relative="1" as="geometry">
            <mxPoint x="1150" y="195" as="sourcePoint" />
            <mxPoint x="1380" y="210" as="targetPoint" />
          </mxGeometry>
        </mxCell>
        <mxCell id="9OJgZ5kYdxDhE4Dtwnga-90" value="" style="endArrow=none;html=1;rounded=0;exitX=1;exitY=0.5;exitDx=0;exitDy=0;entryX=0;entryY=0.5;entryDx=0;entryDy=0;" edge="1" parent="1" target="9OJgZ5kYdxDhE4Dtwnga-85">
          <mxGeometry relative="1" as="geometry">
            <mxPoint x="695" y="239.09" as="sourcePoint" />
            <mxPoint x="980" y="239.09" as="targetPoint" />
          </mxGeometry>
        </mxCell>
        <mxCell id="9OJgZ5kYdxDhE4Dtwnga-91" value="Funcion" style="shape=rhombus;perimeter=rhombusPerimeter;whiteSpace=wrap;html=1;align=center;rotation=0;" vertex="1" parent="1">
          <mxGeometry x="1380.0001209304198" y="439.9969174948233" width="120" height="60" as="geometry" />
        </mxCell>
        <mxCell id="9OJgZ5kYdxDhE4Dtwnga-92" value="" style="endArrow=none;html=1;rounded=0;exitX=0.5;exitY=1;exitDx=0;exitDy=0;entryX=0.5;entryY=0;entryDx=0;entryDy=0;" edge="1" parent="1" source="9OJgZ5kYdxDhE4Dtwnga-88" target="9OJgZ5kYdxDhE4Dtwnga-91">
          <mxGeometry relative="1" as="geometry">
            <mxPoint x="1390" y="380" as="sourcePoint" />
            <mxPoint x="1680" y="380" as="targetPoint" />
          </mxGeometry>
        </mxCell>
        <mxCell id="9OJgZ5kYdxDhE4Dtwnga-93" value="" style="endArrow=none;html=1;rounded=0;exitX=0.5;exitY=1;exitDx=0;exitDy=0;entryX=0.5;entryY=0;entryDx=0;entryDy=0;" edge="1" parent="1" source="9OJgZ5kYdxDhE4Dtwnga-91" target="9OJgZ5kYdxDhE4Dtwnga-65">
          <mxGeometry relative="1" as="geometry">
            <mxPoint x="1530" y="510" as="sourcePoint" />
            <mxPoint x="1820" y="510" as="targetPoint" />
          </mxGeometry>
        </mxCell>
        <mxCell id="9OJgZ5kYdxDhE4Dtwnga-94" value="id pelicula" style="ellipse;whiteSpace=wrap;html=1;align=center;fontStyle=4;" vertex="1" parent="1">
          <mxGeometry x="1590" y="-50" width="100" height="40" as="geometry" />
        </mxCell>
        <mxCell id="9OJgZ5kYdxDhE4Dtwnga-95" value="titulo" style="ellipse;whiteSpace=wrap;html=1;align=center;" vertex="1" parent="1">
          <mxGeometry x="1140" y="-70" width="100" height="40" as="geometry" />
        </mxCell>
        <mxCell id="9OJgZ5kYdxDhE4Dtwnga-96" value="sinopsis" style="ellipse;whiteSpace=wrap;html=1;align=center;" vertex="1" parent="1">
          <mxGeometry x="1181" y="-110" width="100" height="40" as="geometry" />
        </mxCell>
        <mxCell id="9OJgZ5kYdxDhE4Dtwnga-97" value="duracionMinutos" style="ellipse;whiteSpace=wrap;html=1;align=center;" vertex="1" parent="1">
          <mxGeometry x="1210" y="-150" width="100" height="40" as="geometry" />
        </mxCell>
        <mxCell id="9OJgZ5kYdxDhE4Dtwnga-98" value="director" style="ellipse;whiteSpace=wrap;html=1;align=center;" vertex="1" parent="1">
          <mxGeometry x="1280" y="-180" width="100" height="40" as="geometry" />
        </mxCell>
        <mxCell id="9OJgZ5kYdxDhE4Dtwnga-99" value="reparto" style="ellipse;whiteSpace=wrap;html=1;align=center;" vertex="1" parent="1">
          <mxGeometry x="1380" y="-190" width="100" height="40" as="geometry" />
        </mxCell>
        <mxCell id="9OJgZ5kYdxDhE4Dtwnga-100" value="clasificacion" style="ellipse;whiteSpace=wrap;html=1;align=center;" vertex="1" parent="1">
          <mxGeometry x="1470" y="-170" width="100" height="40" as="geometry" />
        </mxCell>
        <mxCell id="9OJgZ5kYdxDhE4Dtwnga-101" value="fechaEstreno" style="ellipse;whiteSpace=wrap;html=1;align=center;" vertex="1" parent="1">
          <mxGeometry x="1520" y="-135" width="100" height="40" as="geometry" />
        </mxCell>
        <mxCell id="9OJgZ5kYdxDhE4Dtwnga-102" value="estado" style="ellipse;whiteSpace=wrap;html=1;align=center;" vertex="1" parent="1">
          <mxGeometry x="1570" y="-95" width="100" height="40" as="geometry" />
        </mxCell>
        <mxCell id="9OJgZ5kYdxDhE4Dtwnga-103" value="poster" style="ellipse;whiteSpace=wrap;html=1;align=center;" vertex="1" parent="1">
          <mxGeometry x="1610" y="-10" width="100" height="40" as="geometry" />
        </mxCell>
        <mxCell id="9OJgZ5kYdxDhE4Dtwnga-105" value="Categoria" style="whiteSpace=wrap;html=1;align=center;" vertex="1" parent="1">
          <mxGeometry x="2270" y="214.09" width="100" height="40" as="geometry" />
        </mxCell>
        <mxCell id="9OJgZ5kYdxDhE4Dtwnga-106" value="definicion" style="shape=rhombus;perimeter=rhombusPerimeter;whiteSpace=wrap;html=1;align=center;rotation=0;" vertex="1" parent="1">
          <mxGeometry x="1840" y="200" width="120" height="60" as="geometry" />
        </mxCell>
        <mxCell id="9OJgZ5kYdxDhE4Dtwnga-108" value="" style="endArrow=none;html=1;rounded=0;entryX=0;entryY=0.5;entryDx=0;entryDy=0;exitX=1;exitY=0.5;exitDx=0;exitDy=0;" edge="1" parent="1" source="9OJgZ5kYdxDhE4Dtwnga-88" target="9OJgZ5kYdxDhE4Dtwnga-106">
          <mxGeometry relative="1" as="geometry">
            <mxPoint x="1510" y="250" as="sourcePoint" />
            <mxPoint x="1590" y="230" as="targetPoint" />
          </mxGeometry>
        </mxCell>
        <mxCell id="9OJgZ5kYdxDhE4Dtwnga-109" value="" style="endArrow=none;html=1;rounded=0;exitX=1;exitY=0.5;exitDx=0;exitDy=0;entryX=0;entryY=0.5;entryDx=0;entryDy=0;" edge="1" parent="1" source="9OJgZ5kYdxDhE4Dtwnga-106" target="9OJgZ5kYdxDhE4Dtwnga-105">
          <mxGeometry relative="1" as="geometry">
            <mxPoint x="1960" y="284.09" as="sourcePoint" />
            <mxPoint x="2250" y="284.09" as="targetPoint" />
          </mxGeometry>
        </mxCell>
        <mxCell id="9OJgZ5kYdxDhE4Dtwnga-110" value="M" style="text;strokeColor=none;fillColor=none;spacingLeft=4;spacingRight=4;overflow=hidden;rotatable=0;points=[[0,0.5],[1,0.5]];portConstraint=eastwest;fontSize=12;whiteSpace=wrap;html=1;" vertex="1" parent="1">
          <mxGeometry x="695" y="209.09" width="20" height="30" as="geometry" />
        </mxCell>
        <mxCell id="9OJgZ5kYdxDhE4Dtwnga-112" value="M" style="text;strokeColor=none;fillColor=none;spacingLeft=4;spacingRight=4;overflow=hidden;rotatable=0;points=[[0,0.5],[1,0.5]];portConstraint=eastwest;fontSize=12;whiteSpace=wrap;html=1;" vertex="1" parent="1">
          <mxGeometry x="1370" y="200" width="20" height="30" as="geometry" />
        </mxCell>
        <mxCell id="9OJgZ5kYdxDhE4Dtwnga-113" value="1" style="text;strokeColor=none;fillColor=none;spacingLeft=4;spacingRight=4;overflow=hidden;rotatable=0;points=[[0,0.5],[1,0.5]];portConstraint=eastwest;fontSize=12;whiteSpace=wrap;html=1;" vertex="1" parent="1">
          <mxGeometry x="1490" y="209.09" width="20" height="30" as="geometry" />
        </mxCell>
        <mxCell id="9OJgZ5kYdxDhE4Dtwnga-114" value="M" style="text;strokeColor=none;fillColor=none;spacingLeft=4;spacingRight=4;overflow=hidden;rotatable=0;points=[[0,0.5],[1,0.5]];portConstraint=eastwest;fontSize=12;whiteSpace=wrap;html=1;" vertex="1" parent="1">
          <mxGeometry x="2250" y="213.18" width="20" height="30" as="geometry" />
        </mxCell>
        <mxCell id="9OJgZ5kYdxDhE4Dtwnga-115" value="id funcion" style="ellipse;whiteSpace=wrap;html=1;align=center;fontStyle=4;" vertex="1" parent="1">
          <mxGeometry x="1241" y="360" width="100" height="40" as="geometry" />
        </mxCell>
        <mxCell id="9OJgZ5kYdxDhE4Dtwnga-116" value="M" style="text;strokeColor=none;fillColor=none;spacingLeft=4;spacingRight=4;overflow=hidden;rotatable=0;points=[[0,0.5],[1,0.5]];portConstraint=eastwest;fontSize=12;whiteSpace=wrap;html=1;" vertex="1" parent="1">
          <mxGeometry x="1440" y="250" width="20" height="30" as="geometry" />
        </mxCell>
        <mxCell id="9OJgZ5kYdxDhE4Dtwnga-117" value="M" style="text;strokeColor=none;fillColor=none;spacingLeft=4;spacingRight=4;overflow=hidden;rotatable=0;points=[[0,0.5],[1,0.5]];portConstraint=eastwest;fontSize=12;whiteSpace=wrap;html=1;" vertex="1" parent="1">
          <mxGeometry x="1440" y="640" width="20" height="30" as="geometry" />
        </mxCell>
        <mxCell id="9OJgZ5kYdxDhE4Dtwnga-120" value="fecha hora funcion" style="ellipse;whiteSpace=wrap;html=1;align=center;fontStyle=4;" vertex="1" parent="1">
          <mxGeometry x="1200" y="400" width="100" height="40" as="geometry" />
        </mxCell>
        <mxCell id="9OJgZ5kYdxDhE4Dtwnga-121" value="precioBoleto" style="ellipse;whiteSpace=wrap;html=1;align=center;" vertex="1" parent="1">
          <mxGeometry x="2030" y="360" width="100" height="40" as="geometry" />
        </mxCell>
        <mxCell id="9OJgZ5kYdxDhE4Dtwnga-122" value="asientosDisponibles" style="ellipse;whiteSpace=wrap;html=1;align=center;" vertex="1" parent="1">
          <mxGeometry x="1305" y="330" width="130" height="40" as="geometry" />
        </mxCell>
        <mxCell id="9OJgZ5kYdxDhE4Dtwnga-123" value="Boleto" style="whiteSpace=wrap;html=1;align=center;" vertex="1" parent="1">
          <mxGeometry x="2000" y="450" width="100" height="40" as="geometry" />
        </mxCell>
        <mxCell id="9OJgZ5kYdxDhE4Dtwnga-124" value="utilizar" style="shape=rhombus;perimeter=rhombusPerimeter;whiteSpace=wrap;html=1;align=center;rotation=0;" vertex="1" parent="1">
          <mxGeometry x="1690" y="440" width="120" height="60" as="geometry" />
        </mxCell>
        <mxCell id="9OJgZ5kYdxDhE4Dtwnga-125" value="" style="endArrow=none;html=1;rounded=0;exitX=1;exitY=0.5;exitDx=0;exitDy=0;entryX=0;entryY=0.5;entryDx=0;entryDy=0;" edge="1" parent="1" target="9OJgZ5kYdxDhE4Dtwnga-123">
          <mxGeometry relative="1" as="geometry">
            <mxPoint x="2000" y="465" as="sourcePoint" />
            <mxPoint x="1980" y="530" as="targetPoint" />
          </mxGeometry>
        </mxCell>
        <mxCell id="9OJgZ5kYdxDhE4Dtwnga-127" value="" style="endArrow=none;html=1;rounded=0;entryX=0;entryY=0.5;entryDx=0;entryDy=0;exitX=1;exitY=0.5;exitDx=0;exitDy=0;" edge="1" parent="1" source="9OJgZ5kYdxDhE4Dtwnga-91" target="9OJgZ5kYdxDhE4Dtwnga-124">
          <mxGeometry relative="1" as="geometry">
            <mxPoint x="1700" y="550" as="sourcePoint" />
            <mxPoint x="2040" y="480" as="targetPoint" />
          </mxGeometry>
        </mxCell>
        <mxCell id="9OJgZ5kYdxDhE4Dtwnga-129" value="" style="endArrow=none;html=1;rounded=0;exitX=1;exitY=0.5;exitDx=0;exitDy=0;entryX=0;entryY=0.5;entryDx=0;entryDy=0;" edge="1" parent="1" source="9OJgZ5kYdxDhE4Dtwnga-124" target="9OJgZ5kYdxDhE4Dtwnga-123">
          <mxGeometry relative="1" as="geometry">
            <mxPoint x="1840" y="470" as="sourcePoint" />
            <mxPoint x="2030" y="470" as="targetPoint" />
          </mxGeometry>
        </mxCell>
        <mxCell id="9OJgZ5kYdxDhE4Dtwnga-130" value="M" style="text;strokeColor=none;fillColor=none;spacingLeft=4;spacingRight=4;overflow=hidden;rotatable=0;points=[[0,0.5],[1,0.5]];portConstraint=eastwest;fontSize=12;whiteSpace=wrap;html=1;" vertex="1" parent="1">
          <mxGeometry x="1980" y="440" width="20" height="30" as="geometry" />
        </mxCell>
        <mxCell id="9OJgZ5kYdxDhE4Dtwnga-132" value="id boleto" style="ellipse;whiteSpace=wrap;html=1;align=center;fontStyle=4;" vertex="1" parent="1">
          <mxGeometry x="1920" y="360" width="100" height="40" as="geometry" />
        </mxCell>
        <mxCell id="9OJgZ5kYdxDhE4Dtwnga-133" value="fecha de creacion" style="ellipse;whiteSpace=wrap;html=1;align=center;" vertex="1" parent="1">
          <mxGeometry x="2130" y="380" width="100" height="40" as="geometry" />
        </mxCell>
        <mxCell id="9OJgZ5kYdxDhE4Dtwnga-135" value="1" style="text;strokeColor=none;fillColor=none;spacingLeft=4;spacingRight=4;overflow=hidden;rotatable=0;points=[[0,0.5],[1,0.5]];portConstraint=eastwest;fontSize=12;whiteSpace=wrap;html=1;" vertex="1" parent="1">
          <mxGeometry x="1490" y="440" width="20" height="30" as="geometry" />
        </mxCell>
        <mxCell id="9OJgZ5kYdxDhE4Dtwnga-136" value="Publicidad" style="shape=rhombus;perimeter=rhombusPerimeter;whiteSpace=wrap;html=1;align=center;rotation=-25;" vertex="1" parent="1">
          <mxGeometry x="110.00012093041971" y="474.99691749482326" width="120" height="60" as="geometry" />
        </mxCell>
        <mxCell id="9OJgZ5kYdxDhE4Dtwnga-141" value="Anuncio" style="whiteSpace=wrap;html=1;align=center;" vertex="1" parent="1">
          <mxGeometry x="-120" y="635" width="100" height="40" as="geometry" />
        </mxCell>
        <mxCell id="9OJgZ5kYdxDhE4Dtwnga-143" value="Comentar_Pelicula" style="shape=rhombus;perimeter=rhombusPerimeter;whiteSpace=wrap;html=1;align=center;rotation=0;" vertex="1" parent="1">
          <mxGeometry x="960" y="-10" width="120" height="60" as="geometry" />
        </mxCell>
        <mxCell id="9OJgZ5kYdxDhE4Dtwnga-144" value="" style="endArrow=none;html=1;rounded=0;exitX=1;exitY=0;exitDx=0;exitDy=0;entryX=0;entryY=0.5;entryDx=0;entryDy=0;" edge="1" parent="1" source="9OJgZ5kYdxDhE4Dtwnga-3" target="9OJgZ5kYdxDhE4Dtwnga-143">
          <mxGeometry relative="1" as="geometry">
            <mxPoint x="770" y="179.09" as="sourcePoint" />
            <mxPoint x="1055" y="170" as="targetPoint" />
          </mxGeometry>
        </mxCell>
        <mxCell id="9OJgZ5kYdxDhE4Dtwnga-145" value="" style="endArrow=none;html=1;rounded=0;exitX=0;exitY=0;exitDx=0;exitDy=0;entryX=1;entryY=0.5;entryDx=0;entryDy=0;" edge="1" parent="1" source="9OJgZ5kYdxDhE4Dtwnga-88" target="9OJgZ5kYdxDhE4Dtwnga-143">
          <mxGeometry relative="1" as="geometry">
            <mxPoint x="860" y="250" as="sourcePoint" />
            <mxPoint x="1145" y="120" as="targetPoint" />
          </mxGeometry>
        </mxCell>
        <mxCell id="9OJgZ5kYdxDhE4Dtwnga-146" value="comentario" style="ellipse;whiteSpace=wrap;html=1;align=center;" vertex="1" parent="1">
          <mxGeometry x="888" y="-300" width="100" height="40" as="geometry" />
        </mxCell>
        <mxCell id="9OJgZ5kYdxDhE4Dtwnga-147" value="id comentario" style="ellipse;whiteSpace=wrap;html=1;align=center;fontStyle=4;" vertex="1" parent="1">
          <mxGeometry x="827" y="-260" width="100" height="40" as="geometry" />
        </mxCell>
        <mxCell id="9OJgZ5kYdxDhE4Dtwnga-148" value="calificacion" style="ellipse;whiteSpace=wrap;html=1;align=center;" vertex="1" parent="1">
          <mxGeometry x="970" y="-330" width="100" height="40" as="geometry" />
        </mxCell>
        <mxCell id="9OJgZ5kYdxDhE4Dtwnga-149" value="fecha comentario" style="ellipse;whiteSpace=wrap;html=1;align=center;" vertex="1" parent="1">
          <mxGeometry x="1040" y="-295" width="100" height="40" as="geometry" />
        </mxCell>
        <mxCell id="9OJgZ5kYdxDhE4Dtwnga-150" value="estado" style="ellipse;whiteSpace=wrap;html=1;align=center;" vertex="1" parent="1">
          <mxGeometry x="1120" y="-260" width="100" height="40" as="geometry" />
        </mxCell>
        <mxCell id="9OJgZ5kYdxDhE4Dtwnga-151" value="Comentar_Sala" style="shape=rhombus;perimeter=rhombusPerimeter;whiteSpace=wrap;html=1;align=center;rotation=15;" vertex="1" parent="1">
          <mxGeometry x="960.0001209304197" y="399.99691749482326" width="120" height="60" as="geometry" />
        </mxCell>
        <mxCell id="9OJgZ5kYdxDhE4Dtwnga-152" value="" style="endArrow=none;html=1;rounded=0;exitX=1;exitY=1;exitDx=0;exitDy=0;entryX=0;entryY=0.5;entryDx=0;entryDy=0;" edge="1" parent="1" source="9OJgZ5kYdxDhE4Dtwnga-3" target="9OJgZ5kYdxDhE4Dtwnga-151">
          <mxGeometry relative="1" as="geometry">
            <mxPoint x="930" y="300" as="sourcePoint" />
            <mxPoint x="1211" y="609" as="targetPoint" />
          </mxGeometry>
        </mxCell>
        <mxCell id="9OJgZ5kYdxDhE4Dtwnga-153" value="" style="endArrow=none;html=1;rounded=0;exitX=1;exitY=0.5;exitDx=0;exitDy=0;entryX=0.5;entryY=0;entryDx=0;entryDy=0;" edge="1" parent="1" source="9OJgZ5kYdxDhE4Dtwnga-151" target="9OJgZ5kYdxDhE4Dtwnga-65">
          <mxGeometry relative="1" as="geometry">
            <mxPoint x="1090" y="370" as="sourcePoint" />
            <mxPoint x="1371" y="679" as="targetPoint" />
          </mxGeometry>
        </mxCell>
        <mxCell id="9OJgZ5kYdxDhE4Dtwnga-154" value="M" style="text;strokeColor=none;fillColor=none;spacingLeft=4;spacingRight=4;overflow=hidden;rotatable=0;points=[[0,0.5],[1,0.5]];portConstraint=eastwest;fontSize=12;whiteSpace=wrap;html=1;" vertex="1" parent="1">
          <mxGeometry x="700" y="245" width="20" height="30" as="geometry" />
        </mxCell>
        <mxCell id="9OJgZ5kYdxDhE4Dtwnga-155" value="M" style="text;strokeColor=none;fillColor=none;spacingLeft=4;spacingRight=4;overflow=hidden;rotatable=0;points=[[0,0.5],[1,0.5]];portConstraint=eastwest;fontSize=12;whiteSpace=wrap;html=1;" vertex="1" parent="1">
          <mxGeometry x="1410" y="630" width="20" height="30" as="geometry" />
        </mxCell>
        <mxCell id="9OJgZ5kYdxDhE4Dtwnga-156" value="id comentario sala" style="ellipse;whiteSpace=wrap;html=1;align=center;fontStyle=4;" vertex="1" parent="1">
          <mxGeometry x="870" y="310" width="100" height="40" as="geometry" />
        </mxCell>
        <mxCell id="9OJgZ5kYdxDhE4Dtwnga-157" value="comentario" style="ellipse;whiteSpace=wrap;html=1;align=center;" vertex="1" parent="1">
          <mxGeometry x="970" y="280" width="100" height="40" as="geometry" />
        </mxCell>
        <mxCell id="9OJgZ5kYdxDhE4Dtwnga-158" value="fecha comentario" style="ellipse;whiteSpace=wrap;html=1;align=center;" vertex="1" parent="1">
          <mxGeometry x="1050" y="320" width="100" height="40" as="geometry" />
        </mxCell>
        <mxCell id="9OJgZ5kYdxDhE4Dtwnga-159" value="calificacion" style="ellipse;whiteSpace=wrap;html=1;align=center;" vertex="1" parent="1">
          <mxGeometry x="850" y="445" width="100" height="40" as="geometry" />
        </mxCell>
        <mxCell id="9OJgZ5kYdxDhE4Dtwnga-160" value="estado" style="ellipse;whiteSpace=wrap;html=1;align=center;" vertex="1" parent="1">
          <mxGeometry x="1010" y="500" width="100" height="40" as="geometry" />
        </mxCell>
        <mxCell id="9OJgZ5kYdxDhE4Dtwnga-164" value="id anuncio" style="ellipse;whiteSpace=wrap;html=1;align=center;fontStyle=4;" vertex="1" parent="1">
          <mxGeometry x="-510" y="802.5" width="100" height="40" as="geometry" />
        </mxCell>
        <mxCell id="9OJgZ5kYdxDhE4Dtwnga-165" value="Tipo_Anuncio" style="whiteSpace=wrap;html=1;align=center;" vertex="1" parent="1">
          <mxGeometry x="-590" y="350" width="100" height="40" as="geometry" />
        </mxCell>
        <mxCell id="9OJgZ5kYdxDhE4Dtwnga-166" value="ser" style="shape=rhombus;perimeter=rhombusPerimeter;whiteSpace=wrap;html=1;align=center;rotation=30;" vertex="1" parent="1">
          <mxGeometry x="-400" y="440" width="120" height="60" as="geometry" />
        </mxCell>
        <mxCell id="9OJgZ5kYdxDhE4Dtwnga-167" value="id tipoAnuncio" style="ellipse;whiteSpace=wrap;html=1;align=center;fontStyle=4;" vertex="1" parent="1">
          <mxGeometry x="-770" y="220" width="100" height="40" as="geometry" />
        </mxCell>
        <mxCell id="9OJgZ5kYdxDhE4Dtwnga-168" value="" style="endArrow=none;html=1;rounded=0;exitX=1;exitY=1;exitDx=0;exitDy=0;" edge="1" parent="1" source="9OJgZ5kYdxDhE4Dtwnga-167" target="9OJgZ5kYdxDhE4Dtwnga-165">
          <mxGeometry relative="1" as="geometry">
            <mxPoint x="-620" y="340" as="sourcePoint" />
            <mxPoint x="-550" y="280" as="targetPoint" />
          </mxGeometry>
        </mxCell>
        <mxCell id="9OJgZ5kYdxDhE4Dtwnga-170" value="descripcion" style="ellipse;whiteSpace=wrap;html=1;align=center;" vertex="1" parent="1">
          <mxGeometry x="-540" y="174.09" width="100" height="40" as="geometry" />
        </mxCell>
        <mxCell id="9OJgZ5kYdxDhE4Dtwnga-171" value="" style="endArrow=none;html=1;rounded=0;exitX=0.688;exitY=1.035;exitDx=0;exitDy=0;entryX=0.5;entryY=0;entryDx=0;entryDy=0;exitPerimeter=0;" edge="1" parent="1" source="9OJgZ5kYdxDhE4Dtwnga-205" target="9OJgZ5kYdxDhE4Dtwnga-165">
          <mxGeometry relative="1" as="geometry">
            <mxPoint x="-620" y="215" as="sourcePoint" />
            <mxPoint x="-510" y="310" as="targetPoint" />
          </mxGeometry>
        </mxCell>
        <mxCell id="9OJgZ5kYdxDhE4Dtwnga-172" value="" style="endArrow=none;html=1;rounded=0;exitX=0.5;exitY=1;exitDx=0;exitDy=0;entryX=0.75;entryY=0;entryDx=0;entryDy=0;" edge="1" parent="1" source="9OJgZ5kYdxDhE4Dtwnga-170" target="9OJgZ5kYdxDhE4Dtwnga-165">
          <mxGeometry relative="1" as="geometry">
            <mxPoint x="-450" y="290" as="sourcePoint" />
            <mxPoint x="-380" y="340" as="targetPoint" />
          </mxGeometry>
        </mxCell>
        <mxCell id="9OJgZ5kYdxDhE4Dtwnga-173" value="" style="endArrow=none;html=1;rounded=0;exitX=0;exitY=0.5;exitDx=0;exitDy=0;entryX=1;entryY=0.5;entryDx=0;entryDy=0;" edge="1" parent="1" source="9OJgZ5kYdxDhE4Dtwnga-166" target="9OJgZ5kYdxDhE4Dtwnga-165">
          <mxGeometry relative="1" as="geometry">
            <mxPoint x="-485" y="280" as="sourcePoint" />
            <mxPoint x="-510" y="416" as="targetPoint" />
          </mxGeometry>
        </mxCell>
        <mxCell id="9OJgZ5kYdxDhE4Dtwnga-174" value="" style="endArrow=none;html=1;rounded=0;exitX=1;exitY=0.5;exitDx=0;exitDy=0;entryX=0;entryY=0;entryDx=0;entryDy=0;" edge="1" parent="1" source="9OJgZ5kYdxDhE4Dtwnga-166" target="9OJgZ5kYdxDhE4Dtwnga-141">
          <mxGeometry relative="1" as="geometry">
            <mxPoint x="-105" y="550" as="sourcePoint" />
            <mxPoint x="-130" y="686" as="targetPoint" />
          </mxGeometry>
        </mxCell>
        <mxCell id="9OJgZ5kYdxDhE4Dtwnga-175" value="1" style="text;strokeColor=none;fillColor=none;spacingLeft=4;spacingRight=4;overflow=hidden;rotatable=0;points=[[0,0.5],[1,0.5]];portConstraint=eastwest;fontSize=12;whiteSpace=wrap;html=1;" vertex="1" parent="1">
          <mxGeometry x="-490" y="345" width="20" height="30" as="geometry" />
        </mxCell>
        <mxCell id="9OJgZ5kYdxDhE4Dtwnga-179" value="titulo" style="ellipse;whiteSpace=wrap;html=1;align=center;" vertex="1" parent="1">
          <mxGeometry x="-490" y="847.5" width="100" height="40" as="geometry" />
        </mxCell>
        <mxCell id="9OJgZ5kYdxDhE4Dtwnga-180" value="texto" style="ellipse;whiteSpace=wrap;html=1;align=center;" vertex="1" parent="1">
          <mxGeometry x="-450" y="897.5" width="100" height="40" as="geometry" />
        </mxCell>
        <mxCell id="9OJgZ5kYdxDhE4Dtwnga-181" value="imagen" style="ellipse;whiteSpace=wrap;html=1;align=center;" vertex="1" parent="1">
          <mxGeometry x="-380" y="937.5" width="100" height="40" as="geometry" />
        </mxCell>
        <mxCell id="9OJgZ5kYdxDhE4Dtwnga-182" value="video" style="ellipse;whiteSpace=wrap;html=1;align=center;" vertex="1" parent="1">
          <mxGeometry x="-270" y="957.5" width="100" height="40" as="geometry" />
        </mxCell>
        <mxCell id="9OJgZ5kYdxDhE4Dtwnga-183" value="fechaInicio" style="ellipse;whiteSpace=wrap;html=1;align=center;" vertex="1" parent="1">
          <mxGeometry y="842.5" width="100" height="40" as="geometry" />
        </mxCell>
        <mxCell id="9OJgZ5kYdxDhE4Dtwnga-184" value="fechaFin" style="ellipse;whiteSpace=wrap;html=1;align=center;" vertex="1" parent="1">
          <mxGeometry x="-80" y="927.5" width="100" height="40" as="geometry" />
        </mxCell>
        <mxCell id="9OJgZ5kYdxDhE4Dtwnga-185" value="CostoTotal" style="ellipse;whiteSpace=wrap;html=1;align=center;" vertex="1" parent="1">
          <mxGeometry x="-160" y="957.5" width="100" height="40" as="geometry" />
        </mxCell>
        <mxCell id="9OJgZ5kYdxDhE4Dtwnga-186" value="estado" style="ellipse;whiteSpace=wrap;html=1;align=center;" vertex="1" parent="1">
          <mxGeometry x="-40" y="887.5" width="100" height="40" as="geometry" />
        </mxCell>
        <mxCell id="9OJgZ5kYdxDhE4Dtwnga-187" value="" style="endArrow=none;html=1;rounded=0;exitX=1;exitY=0.5;exitDx=0;exitDy=0;entryX=0;entryY=0.75;entryDx=0;entryDy=0;" edge="1" parent="1" source="9OJgZ5kYdxDhE4Dtwnga-136" target="9OJgZ5kYdxDhE4Dtwnga-3">
          <mxGeometry relative="1" as="geometry">
            <mxPoint x="340" y="420" as="sourcePoint" />
            <mxPoint x="410" y="360" as="targetPoint" />
          </mxGeometry>
        </mxCell>
        <mxCell id="9OJgZ5kYdxDhE4Dtwnga-188" value="" style="endArrow=none;html=1;rounded=0;exitX=0.42;exitY=0.023;exitDx=0;exitDy=0;entryX=0;entryY=0.5;entryDx=0;entryDy=0;exitPerimeter=0;" edge="1" parent="1" source="9OJgZ5kYdxDhE4Dtwnga-141" target="9OJgZ5kYdxDhE4Dtwnga-136">
          <mxGeometry relative="1" as="geometry">
            <mxPoint x="190" y="570" as="sourcePoint" />
            <mxPoint x="260" y="510" as="targetPoint" />
          </mxGeometry>
        </mxCell>
        <mxCell id="9OJgZ5kYdxDhE4Dtwnga-189" value="M" style="text;strokeColor=none;fillColor=none;spacingLeft=4;spacingRight=4;overflow=hidden;rotatable=0;points=[[0,0.5],[1,0.5]];portConstraint=eastwest;fontSize=12;whiteSpace=wrap;html=1;" vertex="1" parent="1">
          <mxGeometry x="454" y="245" width="20" height="30" as="geometry" />
        </mxCell>
        <mxCell id="9OJgZ5kYdxDhE4Dtwnga-190" value="M" style="text;strokeColor=none;fillColor=none;spacingLeft=4;spacingRight=4;overflow=hidden;rotatable=0;points=[[0,0.5],[1,0.5]];portConstraint=eastwest;fontSize=12;whiteSpace=wrap;html=1;" vertex="1" parent="1">
          <mxGeometry x="-80" y="600" width="20" height="30" as="geometry" />
        </mxCell>
        <mxCell id="9OJgZ5kYdxDhE4Dtwnga-195" value="precio" style="ellipse;whiteSpace=wrap;html=1;align=center;" vertex="1" parent="1">
          <mxGeometry x="-440" y="214.09" width="100" height="40" as="geometry" />
        </mxCell>
        <mxCell id="9OJgZ5kYdxDhE4Dtwnga-196" value="" style="endArrow=none;html=1;rounded=0;exitX=0;exitY=1;exitDx=0;exitDy=0;entryX=0.855;entryY=0.022;entryDx=0;entryDy=0;entryPerimeter=0;" edge="1" parent="1" source="9OJgZ5kYdxDhE4Dtwnga-195" target="9OJgZ5kYdxDhE4Dtwnga-165">
          <mxGeometry relative="1" as="geometry">
            <mxPoint x="-365" y="320" as="sourcePoint" />
            <mxPoint x="-390" y="456" as="targetPoint" />
          </mxGeometry>
        </mxCell>
        <mxCell id="9OJgZ5kYdxDhE4Dtwnga-197" value="M" style="text;strokeColor=none;fillColor=none;spacingLeft=4;spacingRight=4;overflow=hidden;rotatable=0;points=[[0,0.5],[1,0.5]];portConstraint=eastwest;fontSize=12;whiteSpace=wrap;html=1;" vertex="1" parent="1">
          <mxGeometry x="-120" y="605" width="20" height="30" as="geometry" />
        </mxCell>
        <mxCell id="9OJgZ5kYdxDhE4Dtwnga-200" value="Duracion" style="shape=rhombus;perimeter=rhombusPerimeter;whiteSpace=wrap;html=1;align=center;" vertex="1" parent="1">
          <mxGeometry x="-420" y="625" width="120" height="60" as="geometry" />
        </mxCell>
        <mxCell id="9OJgZ5kYdxDhE4Dtwnga-201" value="Duracion_Anuncio" style="whiteSpace=wrap;html=1;align=center;" vertex="1" parent="1">
          <mxGeometry x="-640" y="635" width="100" height="40" as="geometry" />
        </mxCell>
        <mxCell id="9OJgZ5kYdxDhE4Dtwnga-202" value="id duracionAnuncio" style="ellipse;whiteSpace=wrap;html=1;align=center;fontStyle=4;" vertex="1" parent="1">
          <mxGeometry x="-810" y="580" width="110" height="40" as="geometry" />
        </mxCell>
        <mxCell id="9OJgZ5kYdxDhE4Dtwnga-204" value="precio" style="ellipse;whiteSpace=wrap;html=1;align=center;" vertex="1" parent="1">
          <mxGeometry x="-810" y="680" width="100" height="40" as="geometry" />
        </mxCell>
        <mxCell id="9OJgZ5kYdxDhE4Dtwnga-205" value="nombreTipo" style="ellipse;whiteSpace=wrap;html=1;align=center;" vertex="1" parent="1">
          <mxGeometry x="-690" y="170" width="100" height="40" as="geometry" />
        </mxCell>
        <mxCell id="9OJgZ5kYdxDhE4Dtwnga-206" value="tiempo" style="ellipse;whiteSpace=wrap;html=1;align=center;" vertex="1" parent="1">
          <mxGeometry x="-810" y="630" width="100" height="40" as="geometry" />
        </mxCell>
        <mxCell id="9OJgZ5kYdxDhE4Dtwnga-207" value="" style="endArrow=none;html=1;rounded=0;exitX=0;exitY=0.5;exitDx=0;exitDy=0;entryX=1;entryY=0.5;entryDx=0;entryDy=0;" edge="1" parent="1" source="9OJgZ5kYdxDhE4Dtwnga-200" target="9OJgZ5kYdxDhE4Dtwnga-201">
          <mxGeometry relative="1" as="geometry">
            <mxPoint x="-412" y="800" as="sourcePoint" />
            <mxPoint x="-510" y="730" as="targetPoint" />
          </mxGeometry>
        </mxCell>
        <mxCell id="9OJgZ5kYdxDhE4Dtwnga-208" value="" style="endArrow=none;html=1;rounded=0;exitX=1;exitY=0.5;exitDx=0;exitDy=0;entryX=0;entryY=0.5;entryDx=0;entryDy=0;" edge="1" parent="1" source="9OJgZ5kYdxDhE4Dtwnga-200" target="9OJgZ5kYdxDhE4Dtwnga-141">
          <mxGeometry relative="1" as="geometry">
            <mxPoint x="-260" y="700" as="sourcePoint" />
            <mxPoint x="-92" y="835" as="targetPoint" />
          </mxGeometry>
        </mxCell>
        <mxCell id="9OJgZ5kYdxDhE4Dtwnga-209" value="1" style="text;strokeColor=none;fillColor=none;spacingLeft=4;spacingRight=4;overflow=hidden;rotatable=0;points=[[0,0.5],[1,0.5]];portConstraint=eastwest;fontSize=12;whiteSpace=wrap;html=1;" vertex="1" parent="1">
          <mxGeometry x="-540" y="630" width="20" height="30" as="geometry" />
        </mxCell>
        <mxCell id="9OJgZ5kYdxDhE4Dtwnga-210" value="M" style="text;strokeColor=none;fillColor=none;spacingLeft=4;spacingRight=4;overflow=hidden;rotatable=0;points=[[0,0.5],[1,0.5]];portConstraint=eastwest;fontSize=12;whiteSpace=wrap;html=1;" vertex="1" parent="1">
          <mxGeometry x="-150" y="630" width="20" height="30" as="geometry" />
        </mxCell>
        <mxCell id="9OJgZ5kYdxDhE4Dtwnga-213" value="id publicidad" style="ellipse;whiteSpace=wrap;html=1;align=center;fontStyle=4;" vertex="1" parent="1">
          <mxGeometry x="-30" y="410" width="100" height="40" as="geometry" />
        </mxCell>
        <mxCell id="9OJgZ5kYdxDhE4Dtwnga-216" value="estado" style="ellipse;whiteSpace=wrap;html=1;align=center;" vertex="1" parent="1">
          <mxGeometry x="160" y="340" width="100" height="40" as="geometry" />
        </mxCell>
        <mxCell id="9OJgZ5kYdxDhE4Dtwnga-217" value="precioBloqueo" style="ellipse;whiteSpace=wrap;html=1;align=center;" vertex="1" parent="1">
          <mxGeometry x="40" y="360" width="100" height="40" as="geometry" />
        </mxCell>
        <mxCell id="9OJgZ5kYdxDhE4Dtwnga-218" value="Bloqueo_Publicidad" style="shape=rhombus;perimeter=rhombusPerimeter;whiteSpace=wrap;html=1;align=center;rotation=0;" vertex="1" parent="1">
          <mxGeometry x="299.99701507441995" y="659.9963293155415" width="120" height="60" as="geometry" />
        </mxCell>
        <mxCell id="9OJgZ5kYdxDhE4Dtwnga-219" value="" style="endArrow=none;html=1;rounded=0;exitX=1;exitY=0.5;exitDx=0;exitDy=0;entryX=0;entryY=0.5;entryDx=0;entryDy=0;" edge="1" parent="1" source="9OJgZ5kYdxDhE4Dtwnga-218" target="9OJgZ5kYdxDhE4Dtwnga-40">
          <mxGeometry relative="1" as="geometry">
            <mxPoint x="410" y="790" as="sourcePoint" />
            <mxPoint x="590" y="790" as="targetPoint" />
          </mxGeometry>
        </mxCell>
        <mxCell id="9OJgZ5kYdxDhE4Dtwnga-221" value="" style="endArrow=none;html=1;rounded=0;exitX=0.5;exitY=1;exitDx=0;exitDy=0;entryX=0;entryY=0.5;entryDx=0;entryDy=0;" edge="1" parent="1" source="9OJgZ5kYdxDhE4Dtwnga-136" target="9OJgZ5kYdxDhE4Dtwnga-218">
          <mxGeometry relative="1" as="geometry">
            <mxPoint x="470" y="680" as="sourcePoint" />
            <mxPoint x="610" y="680" as="targetPoint" />
          </mxGeometry>
        </mxCell>
        <mxCell id="9OJgZ5kYdxDhE4Dtwnga-222" value="1" style="text;strokeColor=none;fillColor=none;spacingLeft=4;spacingRight=4;overflow=hidden;rotatable=0;points=[[0,0.5],[1,0.5]];portConstraint=eastwest;fontSize=12;whiteSpace=wrap;html=1;" vertex="1" parent="1">
          <mxGeometry x="540" y="665" width="20" height="30" as="geometry" />
        </mxCell>
        <mxCell id="9OJgZ5kYdxDhE4Dtwnga-223" value="M" style="text;strokeColor=none;fillColor=none;spacingLeft=4;spacingRight=4;overflow=hidden;rotatable=0;points=[[0,0.5],[1,0.5]];portConstraint=eastwest;fontSize=12;whiteSpace=wrap;html=1;" vertex="1" parent="1">
          <mxGeometry x="200" y="525" width="20" height="30" as="geometry" />
        </mxCell>
        <mxCell id="9OJgZ5kYdxDhE4Dtwnga-224" value="id bloqueo" style="ellipse;whiteSpace=wrap;html=1;align=center;fontStyle=4;" vertex="1" parent="1">
          <mxGeometry x="90" y="725" width="100" height="40" as="geometry" />
        </mxCell>
        <mxCell id="9OJgZ5kYdxDhE4Dtwnga-225" value="tiempo" style="ellipse;whiteSpace=wrap;html=1;align=center;" vertex="1" parent="1">
          <mxGeometry x="100" y="770" width="100" height="40" as="geometry" />
        </mxCell>
        <mxCell id="9OJgZ5kYdxDhE4Dtwnga-226" value="precio" style="ellipse;whiteSpace=wrap;html=1;align=center;" vertex="1" parent="1">
          <mxGeometry x="150" y="810" width="100" height="40" as="geometry" />
        </mxCell>
        <mxCell id="9OJgZ5kYdxDhE4Dtwnga-227" value="estado" style="ellipse;whiteSpace=wrap;html=1;align=center;" vertex="1" parent="1">
          <mxGeometry x="1560" y="830" width="100" height="40" as="geometry" />
        </mxCell>
        <mxCell id="9OJgZ5kYdxDhE4Dtwnga-228" value="id categoria" style="ellipse;whiteSpace=wrap;html=1;align=center;fontStyle=4;" vertex="1" parent="1">
          <mxGeometry x="2180" y="120" width="100" height="40" as="geometry" />
        </mxCell>
        <mxCell id="9OJgZ5kYdxDhE4Dtwnga-229" value="nombre" style="ellipse;whiteSpace=wrap;html=1;align=center;" vertex="1" parent="1">
          <mxGeometry x="2290" y="70" width="100" height="40" as="geometry" />
        </mxCell>
        <mxCell id="9OJgZ5kYdxDhE4Dtwnga-230" value="descripcion" style="ellipse;whiteSpace=wrap;html=1;align=center;" vertex="1" parent="1">
          <mxGeometry x="2360" y="140" width="100" height="40" as="geometry" />
        </mxCell>
        <mxCell id="9OJgZ5kYdxDhE4Dtwnga-232" value="estado" style="ellipse;whiteSpace=wrap;html=1;align=center;" vertex="1" parent="1">
          <mxGeometry x="1560" y="410" width="90" height="30" as="geometry" />
        </mxCell>
        <mxCell id="9OJgZ5kYdxDhE4Dtwnga-234" value="precioBoleto" style="ellipse;whiteSpace=wrap;html=1;align=center;" vertex="1" parent="1">
          <mxGeometry x="1450" y="330" width="100" height="40" as="geometry" />
        </mxCell>
        <mxCell id="9OJgZ5kYdxDhE4Dtwnga-235" value="precioBoletoNino" style="ellipse;whiteSpace=wrap;html=1;align=center;" vertex="1" parent="1">
          <mxGeometry x="1540" y="360" width="100" height="40" as="geometry" />
        </mxCell>
        <mxCell id="9OJgZ5kYdxDhE4Dtwnga-236" value="usuario" style="whiteSpace=wrap;html=1;align=center;" vertex="1" parent="1">
          <mxGeometry x="2300" y="730" width="100" height="40" as="geometry" />
        </mxCell>
        <mxCell id="9OJgZ5kYdxDhE4Dtwnga-237" value="comprar" style="shape=rhombus;perimeter=rhombusPerimeter;whiteSpace=wrap;html=1;align=center;rotation=30;" vertex="1" parent="1">
          <mxGeometry x="2110" y="590" width="120" height="60" as="geometry" />
        </mxCell>
        <mxCell id="9OJgZ5kYdxDhE4Dtwnga-238" value="" style="endArrow=none;html=1;rounded=0;exitX=0.25;exitY=1;exitDx=0;exitDy=0;entryX=0;entryY=0.5;entryDx=0;entryDy=0;" edge="1" parent="1" source="9OJgZ5kYdxDhE4Dtwnga-123" target="9OJgZ5kYdxDhE4Dtwnga-237">
          <mxGeometry relative="1" as="geometry">
            <mxPoint x="2170" y="490" as="sourcePoint" />
            <mxPoint x="2360" y="490" as="targetPoint" />
          </mxGeometry>
        </mxCell>
        <mxCell id="9OJgZ5kYdxDhE4Dtwnga-239" value="" style="endArrow=none;html=1;rounded=0;exitX=1;exitY=0.5;exitDx=0;exitDy=0;entryX=0;entryY=0;entryDx=0;entryDy=0;" edge="1" parent="1" source="9OJgZ5kYdxDhE4Dtwnga-237" target="9OJgZ5kYdxDhE4Dtwnga-236">
          <mxGeometry relative="1" as="geometry">
            <mxPoint x="2380" y="600" as="sourcePoint" />
            <mxPoint x="2570" y="600" as="targetPoint" />
          </mxGeometry>
        </mxCell>
        <mxCell id="9OJgZ5kYdxDhE4Dtwnga-240" value="M" style="text;strokeColor=none;fillColor=none;spacingLeft=4;spacingRight=4;overflow=hidden;rotatable=0;points=[[0,0.5],[1,0.5]];portConstraint=eastwest;fontSize=12;whiteSpace=wrap;html=1;" vertex="1" parent="1">
          <mxGeometry x="2068" y="505" width="20" height="30" as="geometry" />
        </mxCell>
        <mxCell id="9OJgZ5kYdxDhE4Dtwnga-241" value="M" style="text;strokeColor=none;fillColor=none;spacingLeft=4;spacingRight=4;overflow=hidden;rotatable=0;points=[[0,0.5],[1,0.5]];portConstraint=eastwest;fontSize=12;whiteSpace=wrap;html=1;" vertex="1" parent="1">
          <mxGeometry x="2300" y="695" width="20" height="30" as="geometry" />
        </mxCell>
        <mxCell id="9OJgZ5kYdxDhE4Dtwnga-242" value="codigo" style="ellipse;whiteSpace=wrap;html=1;align=center;" vertex="1" parent="1">
          <mxGeometry x="2190" y="430" width="100" height="40" as="geometry" />
        </mxCell>
        <mxCell id="9OJgZ5kYdxDhE4Dtwnga-243" value="fechaPago" style="ellipse;whiteSpace=wrap;html=1;align=center;" vertex="1" parent="1">
          <mxGeometry x="430" y="810" width="100" height="40" as="geometry" />
        </mxCell>
        <mxCell id="9OJgZ5kYdxDhE4Dtwnga-244" value="fechaInicio" style="ellipse;whiteSpace=wrap;html=1;align=center;" vertex="1" parent="1">
          <mxGeometry x="230" y="840" width="100" height="40" as="geometry" />
        </mxCell>
        <mxCell id="9OJgZ5kYdxDhE4Dtwnga-245" value="fechaFin" style="ellipse;whiteSpace=wrap;html=1;align=center;" vertex="1" parent="1">
          <mxGeometry x="340" y="840" width="100" height="40" as="geometry" />
        </mxCell>
        <mxCell id="9OJgZ5kYdxDhE4Dtwnga-246" value="fechaCreacion" style="ellipse;whiteSpace=wrap;html=1;align=center;" vertex="1" parent="1">
          <mxGeometry x="380" y="-135" width="100" height="40" as="geometry" />
        </mxCell>
        <mxCell id="9OJgZ5kYdxDhE4Dtwnga-247" value="" style="endArrow=none;html=1;rounded=0;exitX=0.5;exitY=1;exitDx=0;exitDy=0;entryX=0.25;entryY=0;entryDx=0;entryDy=0;" edge="1" parent="1" source="9OJgZ5kYdxDhE4Dtwnga-246" target="9OJgZ5kYdxDhE4Dtwnga-3">
          <mxGeometry relative="1" as="geometry">
            <mxPoint x="460" as="sourcePoint" />
            <mxPoint x="498" y="320" as="targetPoint" />
          </mxGeometry>
        </mxCell>
        <mxCell id="9OJgZ5kYdxDhE4Dtwnga-248" value="" style="endArrow=none;html=1;rounded=0;exitX=0.5;exitY=1;exitDx=0;exitDy=0;entryX=0;entryY=0.5;entryDx=0;entryDy=0;" edge="1" parent="1" source="9OJgZ5kYdxDhE4Dtwnga-147" target="9OJgZ5kYdxDhE4Dtwnga-143">
          <mxGeometry relative="1" as="geometry">
            <mxPoint x="1060" y="-110" as="sourcePoint" />
            <mxPoint x="930" y="179" as="targetPoint" />
          </mxGeometry>
        </mxCell>
        <mxCell id="9OJgZ5kYdxDhE4Dtwnga-249" value="" style="endArrow=none;html=1;rounded=0;exitX=0.5;exitY=1;exitDx=0;exitDy=0;entryX=1;entryY=0.5;entryDx=0;entryDy=0;" edge="1" parent="1" source="9OJgZ5kYdxDhE4Dtwnga-150" target="9OJgZ5kYdxDhE4Dtwnga-143">
          <mxGeometry relative="1" as="geometry">
            <mxPoint x="1120" y="-80" as="sourcePoint" />
            <mxPoint x="990" y="209" as="targetPoint" />
          </mxGeometry>
        </mxCell>
        <mxCell id="9OJgZ5kYdxDhE4Dtwnga-250" value="" style="endArrow=none;html=1;rounded=0;exitX=0.5;exitY=1;exitDx=0;exitDy=0;entryX=1;entryY=0;entryDx=0;entryDy=0;" edge="1" parent="1" source="9OJgZ5kYdxDhE4Dtwnga-149" target="9OJgZ5kYdxDhE4Dtwnga-143">
          <mxGeometry relative="1" as="geometry">
            <mxPoint x="1130" y="-90" as="sourcePoint" />
            <mxPoint x="1000" y="199" as="targetPoint" />
          </mxGeometry>
        </mxCell>
        <mxCell id="9OJgZ5kYdxDhE4Dtwnga-251" value="" style="endArrow=none;html=1;rounded=0;exitX=0.5;exitY=1;exitDx=0;exitDy=0;entryX=0;entryY=0;entryDx=0;entryDy=0;" edge="1" parent="1" source="9OJgZ5kYdxDhE4Dtwnga-146" target="9OJgZ5kYdxDhE4Dtwnga-143">
          <mxGeometry relative="1" as="geometry">
            <mxPoint x="1090" y="-60" as="sourcePoint" />
            <mxPoint x="1050" y="200" as="targetPoint" />
          </mxGeometry>
        </mxCell>
        <mxCell id="9OJgZ5kYdxDhE4Dtwnga-252" value="" style="endArrow=none;html=1;rounded=0;exitX=0.394;exitY=1.047;exitDx=0;exitDy=0;exitPerimeter=0;entryX=0.5;entryY=0;entryDx=0;entryDy=0;" edge="1" parent="1" source="9OJgZ5kYdxDhE4Dtwnga-148" target="9OJgZ5kYdxDhE4Dtwnga-143">
          <mxGeometry relative="1" as="geometry">
            <mxPoint x="1060" y="-190" as="sourcePoint" />
            <mxPoint x="1000" y="-60" as="targetPoint" />
          </mxGeometry>
        </mxCell>
        <mxCell id="9OJgZ5kYdxDhE4Dtwnga-253" value="M" style="text;strokeColor=none;fillColor=none;spacingLeft=4;spacingRight=4;overflow=hidden;rotatable=0;points=[[0,0.5],[1,0.5]];portConstraint=eastwest;fontSize=12;whiteSpace=wrap;html=1;" vertex="1" parent="1">
          <mxGeometry x="680" y="165" width="20" height="30" as="geometry" />
        </mxCell>
        <mxCell id="9OJgZ5kYdxDhE4Dtwnga-254" value="" style="endArrow=none;html=1;rounded=0;exitX=0.5;exitY=1;exitDx=0;exitDy=0;entryX=0.25;entryY=0;entryDx=0;entryDy=0;" edge="1" parent="1" source="9OJgZ5kYdxDhE4Dtwnga-95" target="9OJgZ5kYdxDhE4Dtwnga-88">
          <mxGeometry relative="1" as="geometry">
            <mxPoint x="1460" y="80" as="sourcePoint" />
            <mxPoint x="1370" y="320" as="targetPoint" />
          </mxGeometry>
        </mxCell>
        <mxCell id="9OJgZ5kYdxDhE4Dtwnga-255" value="" style="endArrow=none;html=1;rounded=0;exitX=0.5;exitY=1;exitDx=0;exitDy=0;entryX=0.25;entryY=0;entryDx=0;entryDy=0;" edge="1" parent="1" source="9OJgZ5kYdxDhE4Dtwnga-96" target="9OJgZ5kYdxDhE4Dtwnga-88">
          <mxGeometry relative="1" as="geometry">
            <mxPoint x="1290" y="120" as="sourcePoint" />
            <mxPoint x="1495" y="260" as="targetPoint" />
          </mxGeometry>
        </mxCell>
        <mxCell id="9OJgZ5kYdxDhE4Dtwnga-256" value="" style="endArrow=none;html=1;rounded=0;exitX=1;exitY=1;exitDx=0;exitDy=0;entryX=0.5;entryY=0;entryDx=0;entryDy=0;" edge="1" parent="1" source="9OJgZ5kYdxDhE4Dtwnga-97" target="9OJgZ5kYdxDhE4Dtwnga-88">
          <mxGeometry relative="1" as="geometry">
            <mxPoint x="1410" y="120" as="sourcePoint" />
            <mxPoint x="1615" y="260" as="targetPoint" />
          </mxGeometry>
        </mxCell>
        <mxCell id="9OJgZ5kYdxDhE4Dtwnga-257" value="" style="endArrow=none;html=1;rounded=0;exitX=0.5;exitY=1;exitDx=0;exitDy=0;entryX=0.5;entryY=0;entryDx=0;entryDy=0;" edge="1" parent="1" source="9OJgZ5kYdxDhE4Dtwnga-98" target="9OJgZ5kYdxDhE4Dtwnga-88">
          <mxGeometry relative="1" as="geometry">
            <mxPoint x="1450" y="120" as="sourcePoint" />
            <mxPoint x="1655" y="260" as="targetPoint" />
          </mxGeometry>
        </mxCell>
        <mxCell id="9OJgZ5kYdxDhE4Dtwnga-258" value="" style="endArrow=none;html=1;rounded=0;exitX=0.5;exitY=1;exitDx=0;exitDy=0;entryX=0.5;entryY=0;entryDx=0;entryDy=0;" edge="1" parent="1" source="9OJgZ5kYdxDhE4Dtwnga-99" target="9OJgZ5kYdxDhE4Dtwnga-88">
          <mxGeometry relative="1" as="geometry">
            <mxPoint x="1450" y="140" as="sourcePoint" />
            <mxPoint x="1655" y="280" as="targetPoint" />
          </mxGeometry>
        </mxCell>
        <mxCell id="9OJgZ5kYdxDhE4Dtwnga-259" value="" style="endArrow=none;html=1;rounded=0;exitX=0;exitY=1;exitDx=0;exitDy=0;entryX=0.5;entryY=0;entryDx=0;entryDy=0;" edge="1" parent="1" source="9OJgZ5kYdxDhE4Dtwnga-100" target="9OJgZ5kYdxDhE4Dtwnga-88">
          <mxGeometry relative="1" as="geometry">
            <mxPoint x="1510" y="-30" as="sourcePoint" />
            <mxPoint x="1715" y="110" as="targetPoint" />
          </mxGeometry>
        </mxCell>
        <mxCell id="9OJgZ5kYdxDhE4Dtwnga-260" value="" style="endArrow=none;html=1;rounded=0;exitX=0;exitY=1;exitDx=0;exitDy=0;entryX=0.5;entryY=0;entryDx=0;entryDy=0;" edge="1" parent="1" source="9OJgZ5kYdxDhE4Dtwnga-101" target="9OJgZ5kYdxDhE4Dtwnga-88">
          <mxGeometry relative="1" as="geometry">
            <mxPoint x="1505" y="-10" as="sourcePoint" />
            <mxPoint x="1460" y="336" as="targetPoint" />
          </mxGeometry>
        </mxCell>
        <mxCell id="9OJgZ5kYdxDhE4Dtwnga-261" value="" style="endArrow=none;html=1;rounded=0;exitX=0;exitY=1;exitDx=0;exitDy=0;entryX=0.75;entryY=0;entryDx=0;entryDy=0;" edge="1" parent="1" source="9OJgZ5kYdxDhE4Dtwnga-102" target="9OJgZ5kYdxDhE4Dtwnga-88">
          <mxGeometry relative="1" as="geometry">
            <mxPoint x="1605" y="130" as="sourcePoint" />
            <mxPoint x="1560" y="476" as="targetPoint" />
          </mxGeometry>
        </mxCell>
        <mxCell id="9OJgZ5kYdxDhE4Dtwnga-262" value="" style="endArrow=none;html=1;rounded=0;exitX=0;exitY=0.5;exitDx=0;exitDy=0;entryX=0.75;entryY=0;entryDx=0;entryDy=0;" edge="1" parent="1" source="9OJgZ5kYdxDhE4Dtwnga-94" target="9OJgZ5kYdxDhE4Dtwnga-88">
          <mxGeometry relative="1" as="geometry">
            <mxPoint x="1635" y="110" as="sourcePoint" />
            <mxPoint x="1590" y="456" as="targetPoint" />
          </mxGeometry>
        </mxCell>
        <mxCell id="9OJgZ5kYdxDhE4Dtwnga-263" value="" style="endArrow=none;html=1;rounded=0;exitX=0;exitY=0.5;exitDx=0;exitDy=0;entryX=0.75;entryY=0;entryDx=0;entryDy=0;" edge="1" parent="1" source="9OJgZ5kYdxDhE4Dtwnga-103" target="9OJgZ5kYdxDhE4Dtwnga-88">
          <mxGeometry relative="1" as="geometry">
            <mxPoint x="1745" y="30" as="sourcePoint" />
            <mxPoint x="1700" y="376" as="targetPoint" />
          </mxGeometry>
        </mxCell>
        <mxCell id="9OJgZ5kYdxDhE4Dtwnga-264" value="" style="endArrow=none;html=1;rounded=0;exitX=0;exitY=0.5;exitDx=0;exitDy=0;entryX=1;entryY=0.5;entryDx=0;entryDy=0;" edge="1" parent="1" source="9OJgZ5kYdxDhE4Dtwnga-201" target="9OJgZ5kYdxDhE4Dtwnga-202">
          <mxGeometry relative="1" as="geometry">
            <mxPoint x="-572" y="630" as="sourcePoint" />
            <mxPoint x="-670" y="560" as="targetPoint" />
          </mxGeometry>
        </mxCell>
        <mxCell id="9OJgZ5kYdxDhE4Dtwnga-265" value="" style="endArrow=none;html=1;rounded=0;exitX=0;exitY=0.5;exitDx=0;exitDy=0;entryX=1;entryY=0.5;entryDx=0;entryDy=0;" edge="1" parent="1" source="9OJgZ5kYdxDhE4Dtwnga-201" target="9OJgZ5kYdxDhE4Dtwnga-206">
          <mxGeometry relative="1" as="geometry">
            <mxPoint x="-582" y="820" as="sourcePoint" />
            <mxPoint x="-680" y="750" as="targetPoint" />
          </mxGeometry>
        </mxCell>
        <mxCell id="9OJgZ5kYdxDhE4Dtwnga-266" value="" style="endArrow=none;html=1;rounded=0;exitX=0;exitY=0.5;exitDx=0;exitDy=0;entryX=1;entryY=0.5;entryDx=0;entryDy=0;" edge="1" parent="1" source="9OJgZ5kYdxDhE4Dtwnga-201" target="9OJgZ5kYdxDhE4Dtwnga-204">
          <mxGeometry relative="1" as="geometry">
            <mxPoint x="-572" y="790" as="sourcePoint" />
            <mxPoint x="-670" y="720" as="targetPoint" />
          </mxGeometry>
        </mxCell>
        <mxCell id="9OJgZ5kYdxDhE4Dtwnga-267" value="" style="endArrow=none;html=1;rounded=0;exitX=0;exitY=0;exitDx=0;exitDy=0;entryX=1;entryY=1;entryDx=0;entryDy=0;" edge="1" parent="1" source="9OJgZ5kYdxDhE4Dtwnga-136" target="9OJgZ5kYdxDhE4Dtwnga-213">
          <mxGeometry relative="1" as="geometry">
            <mxPoint x="218" y="500" as="sourcePoint" />
            <mxPoint x="120" y="430" as="targetPoint" />
          </mxGeometry>
        </mxCell>
        <mxCell id="9OJgZ5kYdxDhE4Dtwnga-268" value="" style="endArrow=none;html=1;rounded=0;exitX=1;exitY=0;exitDx=0;exitDy=0;entryX=0.5;entryY=1;entryDx=0;entryDy=0;" edge="1" parent="1" source="9OJgZ5kYdxDhE4Dtwnga-136" target="9OJgZ5kYdxDhE4Dtwnga-216">
          <mxGeometry relative="1" as="geometry">
            <mxPoint x="258" y="510" as="sourcePoint" />
            <mxPoint x="160" y="440" as="targetPoint" />
          </mxGeometry>
        </mxCell>
        <mxCell id="9OJgZ5kYdxDhE4Dtwnga-269" value="" style="endArrow=none;html=1;rounded=0;exitX=0.5;exitY=0;exitDx=0;exitDy=0;entryX=0.5;entryY=1;entryDx=0;entryDy=0;" edge="1" parent="1" source="9OJgZ5kYdxDhE4Dtwnga-136" target="9OJgZ5kYdxDhE4Dtwnga-217">
          <mxGeometry relative="1" as="geometry">
            <mxPoint x="238" y="520" as="sourcePoint" />
            <mxPoint x="140" y="450" as="targetPoint" />
          </mxGeometry>
        </mxCell>
        <mxCell id="9OJgZ5kYdxDhE4Dtwnga-270" value="" style="endArrow=none;html=1;rounded=0;exitX=1;exitY=0;exitDx=0;exitDy=0;entryX=0;entryY=0.5;entryDx=0;entryDy=0;" edge="1" parent="1" source="9OJgZ5kYdxDhE4Dtwnga-57" target="9OJgZ5kYdxDhE4Dtwnga-54">
          <mxGeometry relative="1" as="geometry">
            <mxPoint x="480" y="1040" as="sourcePoint" />
            <mxPoint x="780" y="1100" as="targetPoint" />
          </mxGeometry>
        </mxCell>
        <mxCell id="9OJgZ5kYdxDhE4Dtwnga-271" value="" style="endArrow=none;html=1;rounded=0;exitX=0.5;exitY=0;exitDx=0;exitDy=0;entryX=0.5;entryY=1;entryDx=0;entryDy=0;" edge="1" parent="1" source="9OJgZ5kYdxDhE4Dtwnga-58" target="9OJgZ5kYdxDhE4Dtwnga-54">
          <mxGeometry relative="1" as="geometry">
            <mxPoint x="630" y="1080" as="sourcePoint" />
            <mxPoint x="930" y="1140" as="targetPoint" />
          </mxGeometry>
        </mxCell>
        <mxCell id="9OJgZ5kYdxDhE4Dtwnga-272" value="" style="endArrow=none;html=1;rounded=0;exitX=0.5;exitY=1;exitDx=0;exitDy=0;entryX=0.5;entryY=0;entryDx=0;entryDy=0;" edge="1" parent="1" source="9OJgZ5kYdxDhE4Dtwnga-54" target="9OJgZ5kYdxDhE4Dtwnga-59">
          <mxGeometry relative="1" as="geometry">
            <mxPoint x="690" y="1080" as="sourcePoint" />
            <mxPoint x="990" y="1140" as="targetPoint" />
          </mxGeometry>
        </mxCell>
        <mxCell id="9OJgZ5kYdxDhE4Dtwnga-273" value="" style="endArrow=none;html=1;rounded=0;exitX=1;exitY=0.5;exitDx=0;exitDy=0;entryX=0;entryY=0;entryDx=0;entryDy=0;" edge="1" parent="1" source="9OJgZ5kYdxDhE4Dtwnga-54" target="9OJgZ5kYdxDhE4Dtwnga-60">
          <mxGeometry relative="1" as="geometry">
            <mxPoint x="720" y="1010" as="sourcePoint" />
            <mxPoint x="1020" y="1070" as="targetPoint" />
          </mxGeometry>
        </mxCell>
        <mxCell id="9OJgZ5kYdxDhE4Dtwnga-274" value="" style="endArrow=none;html=1;rounded=0;exitX=0.75;exitY=1;exitDx=0;exitDy=0;entryX=0.5;entryY=0;entryDx=0;entryDy=0;" edge="1" parent="1" source="9OJgZ5kYdxDhE4Dtwnga-65" target="9OJgZ5kYdxDhE4Dtwnga-227">
          <mxGeometry relative="1" as="geometry">
            <mxPoint x="1370" y="830" as="sourcePoint" />
            <mxPoint x="1680" y="770" as="targetPoint" />
          </mxGeometry>
        </mxCell>
        <mxCell id="9OJgZ5kYdxDhE4Dtwnga-275" value="" style="endArrow=none;html=1;rounded=0;exitX=0.75;exitY=1;exitDx=0;exitDy=0;entryX=0.5;entryY=0;entryDx=0;entryDy=0;" edge="1" parent="1" source="9OJgZ5kYdxDhE4Dtwnga-65" target="9OJgZ5kYdxDhE4Dtwnga-75">
          <mxGeometry relative="1" as="geometry">
            <mxPoint x="1500" y="890" as="sourcePoint" />
            <mxPoint x="1810" y="830" as="targetPoint" />
          </mxGeometry>
        </mxCell>
        <mxCell id="9OJgZ5kYdxDhE4Dtwnga-276" value="" style="endArrow=none;html=1;rounded=0;exitX=0.5;exitY=1;exitDx=0;exitDy=0;entryX=0.5;entryY=0;entryDx=0;entryDy=0;" edge="1" parent="1" source="9OJgZ5kYdxDhE4Dtwnga-65" target="9OJgZ5kYdxDhE4Dtwnga-74">
          <mxGeometry relative="1" as="geometry">
            <mxPoint x="1470" y="920" as="sourcePoint" />
            <mxPoint x="1780" y="860" as="targetPoint" />
          </mxGeometry>
        </mxCell>
        <mxCell id="9OJgZ5kYdxDhE4Dtwnga-277" value="" style="endArrow=none;html=1;rounded=0;exitX=0.5;exitY=0;exitDx=0;exitDy=0;entryX=0.5;entryY=1;entryDx=0;entryDy=0;" edge="1" parent="1" source="9OJgZ5kYdxDhE4Dtwnga-73" target="9OJgZ5kYdxDhE4Dtwnga-65">
          <mxGeometry relative="1" as="geometry">
            <mxPoint x="1410" y="930" as="sourcePoint" />
            <mxPoint x="1720" y="870" as="targetPoint" />
          </mxGeometry>
        </mxCell>
        <mxCell id="9OJgZ5kYdxDhE4Dtwnga-278" value="" style="endArrow=none;html=1;rounded=0;exitX=0.5;exitY=0;exitDx=0;exitDy=0;entryX=0.25;entryY=1;entryDx=0;entryDy=0;" edge="1" parent="1" source="9OJgZ5kYdxDhE4Dtwnga-72" target="9OJgZ5kYdxDhE4Dtwnga-65">
          <mxGeometry relative="1" as="geometry">
            <mxPoint x="1350" y="810" as="sourcePoint" />
            <mxPoint x="1660" y="750" as="targetPoint" />
          </mxGeometry>
        </mxCell>
        <mxCell id="9OJgZ5kYdxDhE4Dtwnga-279" value="" style="endArrow=none;html=1;rounded=0;exitX=0.5;exitY=0;exitDx=0;exitDy=0;entryX=0.25;entryY=1;entryDx=0;entryDy=0;" edge="1" parent="1" source="9OJgZ5kYdxDhE4Dtwnga-70" target="9OJgZ5kYdxDhE4Dtwnga-65">
          <mxGeometry relative="1" as="geometry">
            <mxPoint x="1320" y="800" as="sourcePoint" />
            <mxPoint x="1630" y="740" as="targetPoint" />
          </mxGeometry>
        </mxCell>
        <mxCell id="9OJgZ5kYdxDhE4Dtwnga-280" value="" style="endArrow=none;html=1;rounded=0;exitX=0.5;exitY=1;exitDx=0;exitDy=0;entryX=0.25;entryY=0;entryDx=0;entryDy=0;" edge="1" parent="1" source="9OJgZ5kYdxDhE4Dtwnga-132" target="9OJgZ5kYdxDhE4Dtwnga-123">
          <mxGeometry relative="1" as="geometry">
            <mxPoint x="1940" y="540" as="sourcePoint" />
            <mxPoint x="2085" y="660" as="targetPoint" />
          </mxGeometry>
        </mxCell>
        <mxCell id="9OJgZ5kYdxDhE4Dtwnga-281" value="" style="endArrow=none;html=1;rounded=0;exitX=0.5;exitY=1;exitDx=0;exitDy=0;entryX=0.5;entryY=0;entryDx=0;entryDy=0;" edge="1" parent="1" source="9OJgZ5kYdxDhE4Dtwnga-121" target="9OJgZ5kYdxDhE4Dtwnga-123">
          <mxGeometry relative="1" as="geometry">
            <mxPoint x="1950" y="550" as="sourcePoint" />
            <mxPoint x="2005" y="600" as="targetPoint" />
          </mxGeometry>
        </mxCell>
        <mxCell id="9OJgZ5kYdxDhE4Dtwnga-282" value="" style="endArrow=none;html=1;rounded=0;exitX=0;exitY=1;exitDx=0;exitDy=0;entryX=0.75;entryY=0;entryDx=0;entryDy=0;" edge="1" parent="1" source="9OJgZ5kYdxDhE4Dtwnga-133" target="9OJgZ5kYdxDhE4Dtwnga-123">
          <mxGeometry relative="1" as="geometry">
            <mxPoint x="2200" y="490" as="sourcePoint" />
            <mxPoint x="2255" y="540" as="targetPoint" />
          </mxGeometry>
        </mxCell>
        <mxCell id="9OJgZ5kYdxDhE4Dtwnga-283" value="" style="endArrow=none;html=1;rounded=0;exitX=1;exitY=0.5;exitDx=0;exitDy=0;entryX=0;entryY=0.5;entryDx=0;entryDy=0;" edge="1" parent="1" source="9OJgZ5kYdxDhE4Dtwnga-123" target="9OJgZ5kYdxDhE4Dtwnga-242">
          <mxGeometry relative="1" as="geometry">
            <mxPoint x="2150" y="480" as="sourcePoint" />
            <mxPoint x="2205" y="530" as="targetPoint" />
          </mxGeometry>
        </mxCell>
        <mxCell id="9OJgZ5kYdxDhE4Dtwnga-284" value="" style="endArrow=none;html=1;rounded=0;exitX=0;exitY=1;exitDx=0;exitDy=0;entryX=1;entryY=0;entryDx=0;entryDy=0;" edge="1" parent="1" source="9OJgZ5kYdxDhE4Dtwnga-218" target="9OJgZ5kYdxDhE4Dtwnga-224">
          <mxGeometry relative="1" as="geometry">
            <mxPoint x="240" y="780" as="sourcePoint" />
            <mxPoint x="357" y="938" as="targetPoint" />
          </mxGeometry>
        </mxCell>
        <mxCell id="9OJgZ5kYdxDhE4Dtwnga-285" value="" style="endArrow=none;html=1;rounded=0;exitX=0;exitY=1;exitDx=0;exitDy=0;entryX=1;entryY=0;entryDx=0;entryDy=0;" edge="1" parent="1" source="9OJgZ5kYdxDhE4Dtwnga-218" target="9OJgZ5kYdxDhE4Dtwnga-225">
          <mxGeometry relative="1" as="geometry">
            <mxPoint x="260" y="770" as="sourcePoint" />
            <mxPoint x="377" y="928" as="targetPoint" />
          </mxGeometry>
        </mxCell>
        <mxCell id="9OJgZ5kYdxDhE4Dtwnga-286" value="" style="endArrow=none;html=1;rounded=0;exitX=0;exitY=1;exitDx=0;exitDy=0;entryX=1;entryY=0;entryDx=0;entryDy=0;" edge="1" parent="1" source="9OJgZ5kYdxDhE4Dtwnga-218" target="9OJgZ5kYdxDhE4Dtwnga-226">
          <mxGeometry relative="1" as="geometry">
            <mxPoint x="300" y="800" as="sourcePoint" />
            <mxPoint x="417" y="958" as="targetPoint" />
          </mxGeometry>
        </mxCell>
        <mxCell id="9OJgZ5kYdxDhE4Dtwnga-287" value="" style="endArrow=none;html=1;rounded=0;exitX=0.5;exitY=1;exitDx=0;exitDy=0;entryX=0.5;entryY=0;entryDx=0;entryDy=0;" edge="1" parent="1" source="9OJgZ5kYdxDhE4Dtwnga-218" target="9OJgZ5kYdxDhE4Dtwnga-244">
          <mxGeometry relative="1" as="geometry">
            <mxPoint x="340" y="800" as="sourcePoint" />
            <mxPoint x="457" y="958" as="targetPoint" />
          </mxGeometry>
        </mxCell>
        <mxCell id="9OJgZ5kYdxDhE4Dtwnga-288" value="" style="endArrow=none;html=1;rounded=0;exitX=0.5;exitY=1;exitDx=0;exitDy=0;entryX=0.5;entryY=0;entryDx=0;entryDy=0;" edge="1" parent="1" source="9OJgZ5kYdxDhE4Dtwnga-218" target="9OJgZ5kYdxDhE4Dtwnga-245">
          <mxGeometry relative="1" as="geometry">
            <mxPoint x="350" y="790" as="sourcePoint" />
            <mxPoint x="467" y="948" as="targetPoint" />
          </mxGeometry>
        </mxCell>
        <mxCell id="9OJgZ5kYdxDhE4Dtwnga-289" value="" style="endArrow=none;html=1;rounded=0;exitX=1;exitY=1;exitDx=0;exitDy=0;entryX=0.5;entryY=0;entryDx=0;entryDy=0;" edge="1" parent="1" source="9OJgZ5kYdxDhE4Dtwnga-218" target="9OJgZ5kYdxDhE4Dtwnga-243">
          <mxGeometry relative="1" as="geometry">
            <mxPoint x="500" y="900" as="sourcePoint" />
            <mxPoint x="617" y="1058" as="targetPoint" />
          </mxGeometry>
        </mxCell>
        <mxCell id="9OJgZ5kYdxDhE4Dtwnga-291" value="" style="endArrow=none;html=1;rounded=0;exitX=1;exitY=1;exitDx=0;exitDy=0;entryX=0.5;entryY=0;entryDx=0;entryDy=0;" edge="1" parent="1" source="9OJgZ5kYdxDhE4Dtwnga-40" target="9OJgZ5kYdxDhE4Dtwnga-49">
          <mxGeometry relative="1" as="geometry">
            <mxPoint x="730" y="810" as="sourcePoint" />
            <mxPoint x="870" y="810" as="targetPoint" />
          </mxGeometry>
        </mxCell>
        <mxCell id="9OJgZ5kYdxDhE4Dtwnga-292" value="" style="endArrow=none;html=1;rounded=0;entryX=0;entryY=1;entryDx=0;entryDy=0;exitX=0.75;exitY=0;exitDx=0;exitDy=0;" edge="1" parent="1" source="9OJgZ5kYdxDhE4Dtwnga-40" target="9OJgZ5kYdxDhE4Dtwnga-51">
          <mxGeometry relative="1" as="geometry">
            <mxPoint x="660" y="660" as="sourcePoint" />
            <mxPoint x="920" y="660" as="targetPoint" />
          </mxGeometry>
        </mxCell>
        <mxCell id="9OJgZ5kYdxDhE4Dtwnga-293" value="" style="endArrow=none;html=1;rounded=0;exitX=0.5;exitY=1;exitDx=0;exitDy=0;entryX=0.75;entryY=0;entryDx=0;entryDy=0;" edge="1" parent="1" source="9OJgZ5kYdxDhE4Dtwnga-52" target="9OJgZ5kYdxDhE4Dtwnga-40">
          <mxGeometry relative="1" as="geometry">
            <mxPoint x="650" y="630" as="sourcePoint" />
            <mxPoint x="790" y="630" as="targetPoint" />
          </mxGeometry>
        </mxCell>
        <mxCell id="9OJgZ5kYdxDhE4Dtwnga-294" value="" style="endArrow=none;html=1;rounded=0;exitX=0.446;exitY=0.958;exitDx=0;exitDy=0;entryX=0.25;entryY=0;entryDx=0;entryDy=0;exitPerimeter=0;" edge="1" parent="1" source="9OJgZ5kYdxDhE4Dtwnga-47" target="9OJgZ5kYdxDhE4Dtwnga-40">
          <mxGeometry relative="1" as="geometry">
            <mxPoint x="560" y="630" as="sourcePoint" />
            <mxPoint x="700" y="630" as="targetPoint" />
          </mxGeometry>
        </mxCell>
        <mxCell id="9OJgZ5kYdxDhE4Dtwnga-295" value="" style="endArrow=none;html=1;rounded=0;exitX=0.25;exitY=0;exitDx=0;exitDy=0;entryX=1;entryY=0.5;entryDx=0;entryDy=0;" edge="1" parent="1" source="9OJgZ5kYdxDhE4Dtwnga-40" target="9OJgZ5kYdxDhE4Dtwnga-48">
          <mxGeometry relative="1" as="geometry">
            <mxPoint x="460" y="580" as="sourcePoint" />
            <mxPoint x="600" y="580" as="targetPoint" />
          </mxGeometry>
        </mxCell>
        <mxCell id="9OJgZ5kYdxDhE4Dtwnga-296" value="" style="endArrow=none;html=1;rounded=0;exitX=0.5;exitY=1;exitDx=0;exitDy=0;entryX=0;entryY=0;entryDx=0;entryDy=0;" edge="1" parent="1" source="9OJgZ5kYdxDhE4Dtwnga-156" target="9OJgZ5kYdxDhE4Dtwnga-151">
          <mxGeometry relative="1" as="geometry">
            <mxPoint x="1010" y="360" as="sourcePoint" />
            <mxPoint x="1150" y="360" as="targetPoint" />
          </mxGeometry>
        </mxCell>
        <mxCell id="9OJgZ5kYdxDhE4Dtwnga-297" value="" style="endArrow=none;html=1;rounded=0;exitX=0.5;exitY=1;exitDx=0;exitDy=0;entryX=0.5;entryY=0;entryDx=0;entryDy=0;" edge="1" parent="1" source="9OJgZ5kYdxDhE4Dtwnga-157" target="9OJgZ5kYdxDhE4Dtwnga-151">
          <mxGeometry relative="1" as="geometry">
            <mxPoint x="990" y="380" as="sourcePoint" />
            <mxPoint x="1130" y="380" as="targetPoint" />
          </mxGeometry>
        </mxCell>
        <mxCell id="9OJgZ5kYdxDhE4Dtwnga-298" value="" style="endArrow=none;html=1;rounded=0;exitX=1;exitY=0;exitDx=0;exitDy=0;entryX=0.5;entryY=1;entryDx=0;entryDy=0;" edge="1" parent="1" source="9OJgZ5kYdxDhE4Dtwnga-151" target="9OJgZ5kYdxDhE4Dtwnga-158">
          <mxGeometry relative="1" as="geometry">
            <mxPoint x="1100" y="400" as="sourcePoint" />
            <mxPoint x="1240" y="400" as="targetPoint" />
          </mxGeometry>
        </mxCell>
        <mxCell id="9OJgZ5kYdxDhE4Dtwnga-299" value="" style="endArrow=none;html=1;rounded=0;exitX=1;exitY=0;exitDx=0;exitDy=0;entryX=0;entryY=1;entryDx=0;entryDy=0;" edge="1" parent="1" source="9OJgZ5kYdxDhE4Dtwnga-159" target="9OJgZ5kYdxDhE4Dtwnga-151">
          <mxGeometry relative="1" as="geometry">
            <mxPoint x="950" y="490" as="sourcePoint" />
            <mxPoint x="1090" y="490" as="targetPoint" />
          </mxGeometry>
        </mxCell>
        <mxCell id="9OJgZ5kYdxDhE4Dtwnga-300" value="" style="endArrow=none;html=1;rounded=0;exitX=1;exitY=1;exitDx=0;exitDy=0;entryX=0.5;entryY=0;entryDx=0;entryDy=0;" edge="1" parent="1" source="9OJgZ5kYdxDhE4Dtwnga-151" target="9OJgZ5kYdxDhE4Dtwnga-160">
          <mxGeometry relative="1" as="geometry">
            <mxPoint x="1050" y="460" as="sourcePoint" />
            <mxPoint x="1190" y="460" as="targetPoint" />
          </mxGeometry>
        </mxCell>
        <mxCell id="9OJgZ5kYdxDhE4Dtwnga-301" value="" style="endArrow=none;html=1;rounded=0;exitX=0;exitY=1;exitDx=0;exitDy=0;entryX=1;entryY=0;entryDx=0;entryDy=0;" edge="1" parent="1" source="9OJgZ5kYdxDhE4Dtwnga-141" target="9OJgZ5kYdxDhE4Dtwnga-164">
          <mxGeometry relative="1" as="geometry">
            <mxPoint x="-145" y="790" as="sourcePoint" />
            <mxPoint x="-300" y="816" as="targetPoint" />
          </mxGeometry>
        </mxCell>
        <mxCell id="9OJgZ5kYdxDhE4Dtwnga-302" value="" style="endArrow=none;html=1;rounded=0;exitX=0;exitY=1;exitDx=0;exitDy=0;entryX=1;entryY=0;entryDx=0;entryDy=0;" edge="1" parent="1" source="9OJgZ5kYdxDhE4Dtwnga-141" target="9OJgZ5kYdxDhE4Dtwnga-179">
          <mxGeometry relative="1" as="geometry">
            <mxPoint x="-165" y="830" as="sourcePoint" />
            <mxPoint x="-320" y="856" as="targetPoint" />
          </mxGeometry>
        </mxCell>
        <mxCell id="9OJgZ5kYdxDhE4Dtwnga-303" value="" style="endArrow=none;html=1;rounded=0;exitX=0.25;exitY=1;exitDx=0;exitDy=0;entryX=1;entryY=0;entryDx=0;entryDy=0;" edge="1" parent="1" source="9OJgZ5kYdxDhE4Dtwnga-141" target="9OJgZ5kYdxDhE4Dtwnga-180">
          <mxGeometry relative="1" as="geometry">
            <mxPoint x="-85" y="800" as="sourcePoint" />
            <mxPoint x="-240" y="826" as="targetPoint" />
          </mxGeometry>
        </mxCell>
        <mxCell id="9OJgZ5kYdxDhE4Dtwnga-304" value="" style="endArrow=none;html=1;rounded=0;exitX=0.25;exitY=1;exitDx=0;exitDy=0;entryX=0.5;entryY=0;entryDx=0;entryDy=0;" edge="1" parent="1" source="9OJgZ5kYdxDhE4Dtwnga-141" target="9OJgZ5kYdxDhE4Dtwnga-181">
          <mxGeometry relative="1" as="geometry">
            <mxPoint x="-15" y="780" as="sourcePoint" />
            <mxPoint x="-170" y="806" as="targetPoint" />
          </mxGeometry>
        </mxCell>
        <mxCell id="9OJgZ5kYdxDhE4Dtwnga-305" value="" style="endArrow=none;html=1;rounded=0;exitX=0.25;exitY=1;exitDx=0;exitDy=0;entryX=0.5;entryY=0;entryDx=0;entryDy=0;" edge="1" parent="1" source="9OJgZ5kYdxDhE4Dtwnga-141" target="9OJgZ5kYdxDhE4Dtwnga-182">
          <mxGeometry relative="1" as="geometry">
            <mxPoint x="5" y="800" as="sourcePoint" />
            <mxPoint x="-150" y="826" as="targetPoint" />
          </mxGeometry>
        </mxCell>
        <mxCell id="9OJgZ5kYdxDhE4Dtwnga-306" value="" style="endArrow=none;html=1;rounded=0;exitX=0.5;exitY=1;exitDx=0;exitDy=0;entryX=0.5;entryY=0;entryDx=0;entryDy=0;" edge="1" parent="1" source="9OJgZ5kYdxDhE4Dtwnga-141" target="9OJgZ5kYdxDhE4Dtwnga-185">
          <mxGeometry relative="1" as="geometry">
            <mxPoint x="5" y="920" as="sourcePoint" />
            <mxPoint x="-150" y="946" as="targetPoint" />
          </mxGeometry>
        </mxCell>
        <mxCell id="9OJgZ5kYdxDhE4Dtwnga-307" value="" style="endArrow=none;html=1;rounded=0;exitX=0.5;exitY=1;exitDx=0;exitDy=0;entryX=0;entryY=0;entryDx=0;entryDy=0;" edge="1" parent="1" source="9OJgZ5kYdxDhE4Dtwnga-141" target="9OJgZ5kYdxDhE4Dtwnga-184">
          <mxGeometry relative="1" as="geometry">
            <mxPoint x="85" y="900" as="sourcePoint" />
            <mxPoint x="-70" y="926" as="targetPoint" />
          </mxGeometry>
        </mxCell>
        <mxCell id="9OJgZ5kYdxDhE4Dtwnga-308" value="" style="endArrow=none;html=1;rounded=0;exitX=0;exitY=0;exitDx=0;exitDy=0;entryX=0.75;entryY=1;entryDx=0;entryDy=0;" edge="1" parent="1" source="9OJgZ5kYdxDhE4Dtwnga-186" target="9OJgZ5kYdxDhE4Dtwnga-141">
          <mxGeometry relative="1" as="geometry">
            <mxPoint x="135" y="840" as="sourcePoint" />
            <mxPoint x="-20" y="866" as="targetPoint" />
          </mxGeometry>
        </mxCell>
        <mxCell id="9OJgZ5kYdxDhE4Dtwnga-309" value="" style="endArrow=none;html=1;rounded=0;exitX=0.75;exitY=1;exitDx=0;exitDy=0;entryX=0.5;entryY=0;entryDx=0;entryDy=0;" edge="1" parent="1" source="9OJgZ5kYdxDhE4Dtwnga-141" target="9OJgZ5kYdxDhE4Dtwnga-183">
          <mxGeometry relative="1" as="geometry">
            <mxPoint x="175" y="810" as="sourcePoint" />
            <mxPoint x="20" y="836" as="targetPoint" />
          </mxGeometry>
        </mxCell>
        <mxCell id="9OJgZ5kYdxDhE4Dtwnga-310" value="" style="endArrow=none;html=1;rounded=0;entryX=0;entryY=0;entryDx=0;entryDy=0;exitX=1;exitY=0.5;exitDx=0;exitDy=0;" edge="1" parent="1" source="9OJgZ5kYdxDhE4Dtwnga-120" target="9OJgZ5kYdxDhE4Dtwnga-91">
          <mxGeometry relative="1" as="geometry">
            <mxPoint x="1370" y="420" as="sourcePoint" />
            <mxPoint x="1560" y="420" as="targetPoint" />
          </mxGeometry>
        </mxCell>
        <mxCell id="9OJgZ5kYdxDhE4Dtwnga-311" value="" style="endArrow=none;html=1;rounded=0;entryX=0.5;entryY=0;entryDx=0;entryDy=0;exitX=1;exitY=1;exitDx=0;exitDy=0;" edge="1" parent="1" source="9OJgZ5kYdxDhE4Dtwnga-115" target="9OJgZ5kYdxDhE4Dtwnga-91">
          <mxGeometry relative="1" as="geometry">
            <mxPoint x="1380" y="410" as="sourcePoint" />
            <mxPoint x="1570" y="410" as="targetPoint" />
          </mxGeometry>
        </mxCell>
        <mxCell id="9OJgZ5kYdxDhE4Dtwnga-312" value="" style="endArrow=none;html=1;rounded=0;entryX=0.5;entryY=0;entryDx=0;entryDy=0;exitX=0.5;exitY=1;exitDx=0;exitDy=0;" edge="1" parent="1" source="9OJgZ5kYdxDhE4Dtwnga-122" target="9OJgZ5kYdxDhE4Dtwnga-91">
          <mxGeometry relative="1" as="geometry">
            <mxPoint x="1460" y="430" as="sourcePoint" />
            <mxPoint x="1650" y="430" as="targetPoint" />
          </mxGeometry>
        </mxCell>
        <mxCell id="9OJgZ5kYdxDhE4Dtwnga-313" value="" style="endArrow=none;html=1;rounded=0;entryX=0.5;entryY=0;entryDx=0;entryDy=0;exitX=0.5;exitY=1;exitDx=0;exitDy=0;" edge="1" parent="1" source="9OJgZ5kYdxDhE4Dtwnga-234" target="9OJgZ5kYdxDhE4Dtwnga-91">
          <mxGeometry relative="1" as="geometry">
            <mxPoint x="1480" y="410" as="sourcePoint" />
            <mxPoint x="1670" y="410" as="targetPoint" />
          </mxGeometry>
        </mxCell>
        <mxCell id="9OJgZ5kYdxDhE4Dtwnga-314" value="" style="endArrow=none;html=1;rounded=0;entryX=0.5;entryY=0;entryDx=0;entryDy=0;exitX=0;exitY=1;exitDx=0;exitDy=0;" edge="1" parent="1" source="9OJgZ5kYdxDhE4Dtwnga-235" target="9OJgZ5kYdxDhE4Dtwnga-91">
          <mxGeometry relative="1" as="geometry">
            <mxPoint x="1480" y="420" as="sourcePoint" />
            <mxPoint x="1670" y="420" as="targetPoint" />
          </mxGeometry>
        </mxCell>
        <mxCell id="9OJgZ5kYdxDhE4Dtwnga-315" value="" style="endArrow=none;html=1;rounded=0;entryX=0;entryY=0.5;entryDx=0;entryDy=0;exitX=1;exitY=0;exitDx=0;exitDy=0;" edge="1" parent="1" source="9OJgZ5kYdxDhE4Dtwnga-91" target="9OJgZ5kYdxDhE4Dtwnga-232">
          <mxGeometry relative="1" as="geometry">
            <mxPoint x="1530" y="440" as="sourcePoint" />
            <mxPoint x="1720" y="440" as="targetPoint" />
          </mxGeometry>
        </mxCell>
        <mxCell id="9OJgZ5kYdxDhE4Dtwnga-316" value="" style="endArrow=none;html=1;rounded=0;exitX=0.5;exitY=1;exitDx=0;exitDy=0;entryX=0.25;entryY=0;entryDx=0;entryDy=0;" edge="1" parent="1" source="9OJgZ5kYdxDhE4Dtwnga-228" target="9OJgZ5kYdxDhE4Dtwnga-105">
          <mxGeometry relative="1" as="geometry">
            <mxPoint x="2240" y="270" as="sourcePoint" />
            <mxPoint x="2210" y="320" as="targetPoint" />
          </mxGeometry>
        </mxCell>
        <mxCell id="9OJgZ5kYdxDhE4Dtwnga-317" value="" style="endArrow=none;html=1;rounded=0;exitX=0.5;exitY=1;exitDx=0;exitDy=0;entryX=1;entryY=0;entryDx=0;entryDy=0;" edge="1" parent="1" source="9OJgZ5kYdxDhE4Dtwnga-230" target="9OJgZ5kYdxDhE4Dtwnga-105">
          <mxGeometry relative="1" as="geometry">
            <mxPoint x="2340" y="180" as="sourcePoint" />
            <mxPoint x="2310" y="230" as="targetPoint" />
          </mxGeometry>
        </mxCell>
        <mxCell id="9OJgZ5kYdxDhE4Dtwnga-318" value="" style="endArrow=none;html=1;rounded=0;exitX=0.5;exitY=1;exitDx=0;exitDy=0;entryX=0.5;entryY=0;entryDx=0;entryDy=0;" edge="1" parent="1" source="9OJgZ5kYdxDhE4Dtwnga-229" target="9OJgZ5kYdxDhE4Dtwnga-105">
          <mxGeometry relative="1" as="geometry">
            <mxPoint x="2350" y="140" as="sourcePoint" />
            <mxPoint x="2320" y="190" as="targetPoint" />
          </mxGeometry>
        </mxCell>
      </root>
    </mxGraphModel>
  </diagram>
</mxfile>
